SplineFontDB: 3.0
FontName: Oxygen
FullName: Oxygen
FamilyName: Oxygen
Weight: Normal
Copyright: Copyright (c) 2011-12 by vernon adams. All rights reserved.
Version: Release 0.2.2 webfont
ItalicAngle: 0
UnderlinePosition: 0
UnderlineWidth: 0
Ascent: 1638
Descent: 410
sfntRevision: 0x00003333
LayerCount: 2
Layer: 0 0 "Back"  1
Layer: 1 0 "Fore"  0
NeedsXUIDChange: 1
XUID: [1021 14 500265001 6446359]
FSType: 0
OS2Version: 3
OS2_WeightWidthSlopeOnly: 0
OS2_UseTypoMetrics: 1
CreationTime: 1335862711
ModificationTime: 1336139907
PfmFamily: 17
TTFWeight: 400
TTFWidth: 5
LineGap: 0
VLineGap: 0
Panose: 2 0 5 3 0 0 0 0 0 0
OS2TypoAscent: 263
OS2TypoAOffset: 1
OS2TypoDescent: -73
OS2TypoDOffset: 1
OS2TypoLinegap: 0
OS2WinAscent: -134
OS2WinAOffset: 1
OS2WinDescent: -189
OS2WinDOffset: 1
HheadAscent: -134
HheadAOffset: 1
HheadDescent: 189
HheadDOffset: 1
OS2SubXSize: 1331
OS2SubYSize: 1433
OS2SubXOff: 0
OS2SubYOff: 286
OS2SupXSize: 1331
OS2SupYSize: 1433
OS2SupXOff: 0
OS2SupYOff: 983
OS2StrikeYSize: 102
OS2StrikeYPos: 530
OS2Vendor: 'newt'
OS2CodePages: 20000093.00000000
OS2UnicodeRanges: a00000ef.4000204b.00000000.00000000
Lookup: 4 0 1 "'liga' Standard Ligatures lookup 0"  {"'liga' Standard Ligatures lookup 0 subtable"  } ['liga' ('DFLT' <'dflt' > 'grek' <'dflt' > 'latn' <'dflt' > ) ]
Lookup: 258 0 0 "'kern' Horizontal Kerning in Latin lookup 0"  {"'kern' Horizontal Kerning in Latin lookup 0 per glyph data 0"  "'kern' Horizontal Kerning in Latin lookup 0 kerning class 1"  } ['kern' ('DFLT' <'dflt' > 'latn' <'dflt' > ) ]
MarkAttachClasses: 1
DEI: 91125
KernClass2: 23 23 "'kern' Horizontal Kerning in Latin lookup 0 kerning class 1" 
 81 A Agrave Aacute Acircumflex Atilde Adieresis Aring Abreve Amacron Aogonek uni0202
 1 B
 75 D O Q Ograve Oacute Ocircumflex Otilde Odieresis Oslash Eth uni020C uni020E
 1 F
 1 K
 1 L
 1 P
 9 T uni021A
 45 U Ugrave Uacute Ucircumflex Udieresis uni0216
 1 V
 1 W
 18 Y Ydieresis Yacute

StartChar: .notdef
Encoding: 65536 -1 0
Width: 1024
Flags: MW
HStem: 0 102<204 820 204 922> 990 102<204 820 204 204>
VStem: 102 102<102 102 102 990> 820 102<102 990 990 990>
LayerCount: 2
Fore
SplineSet
102 0 m 1
 102 1092 l 1
 922 1092 l 1
 922 0 l 1
 102 0 l 1
204 102 m 1
 820 102 l 1
 820 990 l 1
 204 990 l 1
 204 102 l 1
EndSplineSet
EndChar

StartChar: exclam
Encoding: 1 33 2
Width: 586
GlyphClass: 2
Flags: MW
HStem: -12 264<249 337.5> 1476 20G<194 391 391 391>
VStem: 160 266<87 153> 194 197<1354 1496 1354 1496>
LayerCount: 2
Fore
SplineSet
160 120 m 0xe0
 160 186 205 252 293 252 c 0
 382 252 426 186 426 120 c 0
 426 54 382 -12 293 -12 c 0
 205 -12 160 54 160 120 c 0xe0
391 1496 m 1xd0
 391 1354 l 1
 335 435 l 1
 256 435 l 1
 194 1354 l 1
 194 1496 l 1
 391 1496 l 1xd0
EndSplineSet
EndChar

StartChar: quotedbl
Encoding: 2 34 3
Width: 710
GlyphClass: 2
Flags: MW
HStem: 1016 494<160 160 160 261 446 446 446 547>
VStem: 139 437<1510 1510>
LayerCount: 2
Fore
SplineSet
446 1016 m 1
 425 1510 l 1
 576 1510 l 1
 547 1016 l 1
 446 1016 l 1
160 1016 m 1
 139 1510 l 1
 290 1510 l 1
 261 1016 l 1
 160 1016 l 1
EndSplineSet
EndChar

StartChar: numbersign
Encoding: 3 35 4
Width: 1134
GlyphClass: 2
Flags: MW
HStem: -23 21G<189 318 189 189 549 700 549 549> 410 126<101 262 91 284 422 633 101 398 804 941> 931 124<527 737 894 1018>
LayerCount: 2
Fore
SplineSet
1032 1055 m 1
 1018 931 l 1
 871 931 l 1
 804 536 l 1
 951 536 l 1
 941 410 l 1
 786 410 l 1
 700 -23 l 1
 549 -23 l 1
 633 410 l 1
 398 410 l 1
 318 -23 l 1
 189 -23 l 1
 262 410 l 1
 91 410 l 1
 101 536 l 1
 284 536 l 1
 345 930 l 1
 168 930 l 1
 177 1055 l 1
 370 1055 l 1
 453 1462 l 1
 606 1462 l 1
 527 1055 l 1
 761 1055 l 1
 832 1462 l 1
 960 1462 l 1
 894 1055 l 1
 1032 1055 l 1
737 931 m 1
 502 931 l 1
 422 536 l 1
 658 536 l 1
 737 931 l 1
EndSplineSet
EndChar

StartChar: dollar
Encoding: 4 36 5
Width: 1241
GlyphClass: 2
Flags: MW
HStem: -22 154<580 580 580 675> 1370 153<580 580>
VStem: 96 180<1062.5 1200 1062.5 1245> 580 95<-195 -22 -195 -22 132 688 886 1370 1370 1370 1525 1693> 966 179<330.5 486>
LayerCount: 2
Fore
SplineSet
580 1693 m 1
 675 1693 l 1
 675 1525 l 1
 844 1520 993 1478 1089 1418 c 1
 1039 1277 l 1
 966 1318 824 1364 675 1371 c 1
 675 863 l 1
 779 838 l 2
 1003 784 1145 676 1145 432 c 0
 1145 136 956 -8 675 -22 c 1
 675 -195 l 1
 580 -195 l 1
 580 -22 l 1
 346 -14 179 48 94 100 c 1
 146 244 l 1
 266 185 414 141 580 132 c 1
 580 712 l 1
 433 749 l 2
 227 801 96 911 96 1109 c 0
 96 1381 287 1508 580 1523 c 1
 580 1693 l 1
580 886 m 1
 580 1370 l 1
 380 1358 276 1279 276 1121 c 0
 276 1004 354 941 498 906 c 2
 580 886 l 1
675 688 m 1
 675 131 l 1
 865 141 966 235 966 426 c 0
 966 546 917 627 727 675 c 2
 675 688 l 1
EndSplineSet
EndChar

StartChar: percent
Encoding: 5 37 6
Width: 1877
GlyphClass: 2
Flags: MW
HStem: -15 113<1357 1506 1357 1545.5> 640 114<1356 1505> 728 116<357.5 483.5 357.5 517.5> 1378 111<356.5 482>
VStem: 103 127<1030.5 1174.5 1030.5 1213> 611 129<1034 1177> 1079 126<296 439.5 296 478> 1657 127<298.5 442>
LayerCount: 2
Fore
SplineSet
1431 754 m 0xdf
 1663 754 1784 590 1784 369 c 0
 1784 153 1660 -15 1431 -15 c 0
 1200 -15 1079 153 1079 369 c 0
 1079 587 1203 754 1431 754 c 0xdf
1431 640 m 0
 1281 640 1205 510 1205 369 c 0
 1205 223 1283 98 1431 98 c 0
 1581 98 1657 228 1657 369 c 0
 1657 515 1579 640 1431 640 c 0
401 -4 m 1
 1196 1462 l 1
 1358 1462 l 1
 536 -4 l 1
 401 -4 l 1
420 1489 m 0
 616 1489 740 1325 740 1104 c 0
 740 888 615 728 420 728 c 0xbf
 224 728 103 888 103 1104 c 0
 103 1322 225 1489 420 1489 c 0
420 1378 m 0
 293 1378 230 1245 230 1104 c 0
 230 957 295 844 420 844 c 0
 547 844 611 964 611 1104 c 0
 611 1250 544 1378 420 1378 c 0
EndSplineSet
EndChar

StartChar: ampersand
Encoding: 6 38 7
Width: 1477
GlyphClass: 2
Flags: MW
HStem: -23 155<519.5 700.5 519.5 720> 1345 144<599 712.5>
VStem: 104 177<320.5 480 320.5 503.5> 268 187<1115.5 1222.5 1115.5 1265> 858 188<1107 1229>
LayerCount: 2
Fore
SplineSet
441 839 m 1xe8
 338 952 268 1034 268 1165 c 0xd8
 268 1365 421 1489 657 1489 c 0
 861 1489 1046 1389 1046 1182 c 0
 1046 1006 896 892 707 804 c 1
 1108 375 l 1
 1165 435 1214 518 1250 599 c 1
 1371 507 l 1
 1331 419 1276 332 1212 257 c 1
 1393 41 l 1
 1342 22 1287 4 1236 -11 c 1
 1100 143 l 1
 976 43 820 -23 620 -23 c 0
 277 -23 104 138 104 395 c 0
 104 612 241 738 441 839 c 1xe8
544 726 m 1
 392 649 281 554 281 406 c 0xe8
 281 235 410 132 629 132 c 0
 772 132 888 182 985 259 c 1
 836 418 693 567 544 726 c 1
660 1345 m 0
 538 1345 455 1280 455 1165 c 0xd8
 455 1066 517 995 605 910 c 1
 741 977 858 1043 858 1171 c 0
 858 1287 765 1345 660 1345 c 0
EndSplineSet
EndChar

StartChar: quotesingle
Encoding: 7 39 8
Width: 423
GlyphClass: 2
Flags: MW
HStem: 975 511<148 263 148 148>
VStem: 127 156<1486 1486> 148 115<975 975>
LayerCount: 2
Fore
SplineSet
283 1486 m 1xc0
 263 975 l 1
 148 975 l 1xa0
 127 1486 l 1
 283 1486 l 1xc0
EndSplineSet
EndChar

StartChar: parenleft
Encoding: 8 40 9
Width: 609
GlyphClass: 2
Flags: MW
HStem: 1466 20G<376 531 531 531>
VStem: 103 170<451.5 760.5 451.5 766>
LayerCount: 2
Fore
SplineSet
103 598 m 0
 103 934 204 1235 376 1486 c 1
 531 1486 l 1
 363 1224 273 919 273 602 c 0
 273 301 368 -21 531 -271 c 1
 378 -271 l 1
 209 -38 103 271 103 598 c 0
EndSplineSet
EndChar

StartChar: parenright
Encoding: 9 41 10
Width: 609
GlyphClass: 2
Flags: MW
HStem: 1466 20G<77 232 232 232>
VStem: 336 170<451 760.5>
LayerCount: 2
Fore
SplineSet
506 598 m 0
 506 269 398 -38 230 -271 c 1
 78 -271 l 1
 240 -22 336 300 336 602 c 0
 336 919 245 1224 77 1486 c 1
 232 1486 l 1
 403 1234 506 932 506 598 c 0
EndSplineSet
EndChar

StartChar: asterisk
Encoding: 10 42 11
Width: 1105
GlyphClass: 2
Flags: W
LayerCount: 2
Fore
SplineSet
643 1522 m 1
 607 1111 l 1
 966 1262 l 1
 1016 1091 l 1
 649 1008 l 1
 690 953 819 786 901 675 c 1
 850 642 798 614 747 581 c 1
 547 943 l 1
 358 581 l 1
 202 675 l 1
 450 1008 l 1
 87 1091 l 1
 137 1262 l 1
 494 1111 l 1
 457 1522 l 1
 643 1522 l 1
EndSplineSet
EndChar

StartChar: plus
Encoding: 11 43 12
Width: 1126
GlyphClass: 2
Flags: MW
HStem: 582 136<102 499 102 500 637 1027>
VStem: 499 137<153 582 153 582>
LayerCount: 2
Fore
SplineSet
637 718 m 1
 1027 718 l 1
 1027 582 l 1
 636 582 l 1
 636 153 l 1
 499 153 l 1
 499 582 l 1
 102 582 l 1
 102 718 l 1
 500 718 l 1
 500 1142 l 1
 637 1142 l 1
 637 718 l 1
EndSplineSet
EndChar

StartChar: comma
Encoding: 12 44 13
Width: 505
GlyphClass: 2
Flags: MW
HStem: -278 512<109 358 161 214>
VStem: 161 197<190 234>
LayerCount: 2
Fore
SplineSet
109 -278 m 1
 125 -129 153 92 161 234 c 1
 358 234 l 1
 358 190 l 1
 323 49 266 -130 214 -278 c 1
 109 -278 l 1
EndSplineSet
EndChar

StartChar: hyphen
Encoding: 13 45 14
Width: 672
GlyphClass: 2
Flags: MW
HStem: 497 147<86 586 86 586>
VStem: 86 500<497 644 497 644>
LayerCount: 2
Fore
SplineSet
86 497 m 1
 86 644 l 1
 586 644 l 1
 586 497 l 1
 86 497 l 1
EndSplineSet
EndChar

StartChar: period
Encoding: 14 46 15
Width: 494
GlyphClass: 2
Flags: MW
HStem: -12 264<217 305.5>
VStem: 128 266<87 153>
LayerCount: 2
Fore
SplineSet
261 -12 m 0
 173 -12 128 54 128 120 c 0
 128 186 172 252 261 252 c 0
 350 252 394 186 394 120 c 0
 394 54 350 -12 261 -12 c 0
EndSplineSet
EndChar

StartChar: slash
Encoding: 15 47 16
Width: 952
GlyphClass: 2
Flags: W
LayerCount: 2
Fore
SplineSet
194 -218 m 1
 50 -218 l 1
 726 1466 l 1
 872 1466 l 1
 194 -218 l 1
EndSplineSet
EndChar

StartChar: zero
Encoding: 16 48 17
Width: 1241
GlyphClass: 2
Flags: MW
HStem: -23 152<518 726 518 804> 1373 152<518 726>
VStem: 109 192<575.5 935 575.5 980.5> 943 189<575.5 935>
LayerCount: 2
Fore
SplineSet
622 -23 m 0
 258 -23 109 312 109 751 c 0
 109 1210 273 1525 622 1525 c 0
 971 1525 1132 1210 1132 751 c 0
 1132 312 986 -23 622 -23 c 0
622 1373 m 0
 414 1373 301 1113 301 757 c 0
 301 394 414 129 622 129 c 0
 830 129 943 394 943 757 c 0
 943 1113 830 1373 622 1373 c 0
EndSplineSet
EndChar

StartChar: one
Encoding: 17 49 18
Width: 626
GlyphClass: 2
Flags: MW
HStem: 0 21G<284 461 284 284> 1476 20G<302 461 461 461>
VStem: 284 177<0 1311 1311 1311>
LayerCount: 2
Fore
SplineSet
302 1496 m 1
 461 1496 l 1
 461 0 l 1
 284 0 l 1
 284 1311 l 1
 205 1259 109 1221 37 1198 c 1
 37 1365 l 1
 125 1404 223 1440 302 1496 c 1
EndSplineSet
EndChar

StartChar: two
Encoding: 18 50 19
Width: 1116
GlyphClass: 2
Flags: MW
HStem: 0 154<306 988> 1368 157<473.5 621>
VStem: 801 193<1119 1189.5>
LayerCount: 2
Fore
SplineSet
113 0 m 1
 90 164 l 1
 607 738 l 2
 724 868 801 1107 801 1107 c 1
 801 1272 706 1368 536 1368 c 0
 411 1368 286 1330 202 1245 c 1
 144 1395 l 1
 227 1473 354 1525 548 1525 c 0
 820 1525 994 1365 994 1119 c 1
 994 1119 891 781 728 605 c 1
 306 154 l 1
 999 154 l 1
 988 0 l 1
 113 0 l 1
EndSplineSet
EndChar

StartChar: three
Encoding: 19 51 20
Width: 1103
GlyphClass: 2
Flags: MW
HStem: -23 152<421.5 595 421.5 641> 722 149<323 333> 1373 152<430.5 584.5>
VStem: 771 192<1060 1215.5> 824 175<321 515 276.5 537>
LayerCount: 2
Fore
SplineSet
496 -23 m 0xe8
 302 -23 161 40 105 93 c 1
 161 240 l 1
 236 181 346 129 497 129 c 0
 693 129 824 230 824 412 c 0xe8
 824 662 633 715 383 721 c 0
 363 721 343 722 323 722 c 1
 323 871 l 1
 373 871 l 1
 584 875 771 914 771 1133 c 0
 771 1298 673 1373 496 1373 c 0
 359 1373 240 1329 161 1266 c 1
 105 1412 l 1
 196 1481 327 1525 534 1525 c 0
 755 1525 963 1395 963 1156 c 0xf0
 963 964 862 847 700 797 c 1
 883 757 999 620 999 410 c 0
 999 143 786 -23 496 -23 c 0xe8
EndSplineSet
EndChar

StartChar: four
Encoding: 20 52 21
Width: 1211
GlyphClass: 2
Flags: MW
HStem: 0 21G<784 952 784 784> 371 145<284 784 284 784 952 1122> 1476 20G<765 952 952 952>
VStem: 784 168<0 371 0 371 516 1269 1269 1269>
LayerCount: 2
Fore
SplineSet
1122 371 m 1
 952 371 l 1
 952 0 l 1
 784 0 l 1
 784 371 l 1
 108 371 l 1
 108 524 l 1
 765 1496 l 1
 952 1496 l 1
 952 516 l 1
 1136 516 l 1
 1122 371 l 1
784 1269 m 1
 284 516 l 1
 784 516 l 1
 784 1269 l 1
EndSplineSet
EndChar

StartChar: five
Encoding: 21 53 22
Width: 1177
GlyphClass: 2
Flags: MW
HStem: -23 162<446 640 446 691.5> 776 157<567 676.5> 1332 164<379 990 379 379>
VStem: 198 166 237 142 883 181<377 561.5>
LayerCount: 2
Fore
SplineSet
1004 1496 m 1xec
 990 1332 l 1
 379 1332 l 1xec
 374 1187 368 1006 364 861 c 1
 444 912 525 933 609 933 c 0
 912 933 1064 731 1064 477 c 0
 1064 178 860 -23 523 -23 c 0
 348 -23 210 33 121 114 c 1
 186 255 l 1
 250 205 363 139 529 139 c 0
 751 139 883 279 883 475 c 0
 883 648 778 776 575 776 c 0
 480 776 400 746 337 677 c 1
 198 696 l 1xf4
 237 1496 l 1
 1004 1496 l 1xec
EndSplineSet
EndChar

StartChar: six
Encoding: 22 54 23
Width: 1199
GlyphClass: 2
Flags: MW
HStem: -23 152<498 703.5 498 760> 771 150<597 702> 1469 20G<707 938 938 938>
VStem: 103 189<366.5 539 366.5 584.5> 918 189<360 538>
LayerCount: 2
Fore
SplineSet
637 921 m 0
 889 921 1107 725 1107 449 c 0
 1107 182 913 -23 607 -23 c 0
 287 -23 103 202 103 472 c 0
 103 697 178 837 378 1089 c 0
 463 1197 707 1489 707 1489 c 1
 938 1489 l 1
 412 861 l 1
 476 895 557 921 637 921 c 0
292 453 m 0
 292 280 395 129 601 129 c 0
 806 129 918 274 918 446 c 0
 918 630 803 771 601 771 c 0
 379 771 292 625 292 453 c 0
EndSplineSet
EndChar

StartChar: seven
Encoding: 23 55 24
Width: 1052
GlyphClass: 2
Flags: MW
HStem: 0 21G<261 261 261 443> 1341 155<111 775 100 978>
LayerCount: 2
Fore
SplineSet
261 0 m 1
 775 1341 l 1
 100 1341 l 1
 111 1496 l 1
 978 1496 l 1
 978 1360 l 1
 443 0 l 1
 261 0 l 1
EndSplineSet
EndChar

StartChar: eight
Encoding: 24 56 25
Width: 1182
GlyphClass: 2
Flags: MW
HStem: -23 152<504.5 683.5 504.5 727.5> 1373 152<520 668>
VStem: 103 176<313.5 479.5 313.5 481> 134 177<1072.5 1224 1072.5 1268.5> 873 176<1072.5 1224> 904 176<313.5 479.5>
LayerCount: 2
Fore
SplineSet
594 -23 m 0xc4
 327 -23 103 119 103 385 c 0xe4
 103 577 219 724 414 788 c 1
 241 849 134 966 134 1148 c 0
 134 1389 329 1525 594 1525 c 0
 858 1525 1049 1389 1049 1148 c 0xd8
 1049 966 948 849 791 788 c 1
 970 724 1080 577 1080 385 c 0
 1080 119 861 -23 594 -23 c 0xc4
594 703 m 1
 415 662 279 562 279 397 c 0
 279 230 415 129 594 129 c 0
 773 129 904 230 904 397 c 0
 904 562 773 662 594 703 c 1
594 1373 m 0
 446 1373 311 1296 311 1152 c 0
 311 993 411 894 594 853 c 1
 777 894 873 993 873 1152 c 0xd8
 873 1296 742 1373 594 1373 c 0
EndSplineSet
EndChar

StartChar: nine
Encoding: 25 57 26
Width: 1165
GlyphClass: 2
Flags: MW
HStem: 0 21G<250 470 250 250> 598 150<491 596> 1373 152<495.5 701>
VStem: 86 189<964 1142 964 1186.5> 901 189<975 1147.5>
LayerCount: 2
Fore
SplineSet
556 598 m 0
 304 598 86 777 86 1053 c 0
 86 1320 286 1525 592 1525 c 0
 912 1525 1090 1312 1090 1042 c 0
 1090 844 1026 712 872 504 c 1
 775 375 470 0 470 0 c 1
 250 0 l 1
 781 658 l 1
 717 624 636 598 556 598 c 0
901 1061 m 0
 901 1234 804 1373 598 1373 c 0
 393 1373 275 1228 275 1056 c 0
 275 872 390 748 592 748 c 0
 814 748 901 889 901 1061 c 0
EndSplineSet
EndChar

StartChar: colon
Encoding: 26 58 27
Width: 494
GlyphClass: 2
Flags: MW
HStem: -25 233<146 352 146 352> 893 231<146 352 146 352>
VStem: 146 206<-25 208 -25 208 893 1124>
LayerCount: 2
Fore
SplineSet
146 893 m 1
 146 1124 l 1
 352 1124 l 1
 352 893 l 1
 146 893 l 1
146 -25 m 1
 146 208 l 1
 352 208 l 1
 352 -25 l 1
 146 -25 l 1
EndSplineSet
EndChar

StartChar: semicolon
Encoding: 27 59 28
Width: 518
GlyphClass: 2
Flags: MW
HStem: 893 231<174 380 174 380>
VStem: 174 206<893 1124 893 1124>
LayerCount: 2
Fore
SplineSet
174 893 m 1
 174 1124 l 1
 380 1124 l 1
 380 893 l 1
 174 893 l 1
376 197 m 1
 251 -310 l 1
 138 -310 l 1
 194 197 l 1
 376 197 l 1
EndSplineSet
EndChar

StartChar: less
Encoding: 28 60 29
Width: 1175
GlyphClass: 2
Flags: W
LayerCount: 2
Fore
SplineSet
1061 146 m 1
 103 605 l 1
 103 702 l 1
 1063 1195 l 1
 1063 1037 l 1
 288 658 l 1
 1061 304 l 1
 1061 146 l 1
EndSplineSet
EndChar

StartChar: equal
Encoding: 29 61 30
Width: 1228
GlyphClass: 2
Flags: MW
HStem: 377 142<132 1097 132 1097> 799 144<131 1097 131 1097>
LayerCount: 2
Fore
SplineSet
132 377 m 1
 132 519 l 1
 1097 519 l 1
 1097 377 l 1
 132 377 l 1
131 799 m 1
 131 943 l 1
 1097 943 l 1
 1097 799 l 1
 131 799 l 1
EndSplineSet
EndChar

StartChar: greater
Encoding: 30 62 31
Width: 1176
GlyphClass: 2
Flags: W
LayerCount: 2
Fore
SplineSet
115 311 m 1
 889 658 l 1
 117 1044 l 1
 117 1200 l 1
 1075 701 l 1
 1075 604 l 1
 115 152 l 1
 115 311 l 1
EndSplineSet
EndChar

StartChar: question
Encoding: 31 63 32
Width: 865
GlyphClass: 2
Flags: MW
HStem: -12 264<331 419.5> 1373 151<348.5 443.5>
VStem: 242 266<87 153> 602 163<1087.5 1186>
LayerCount: 2
Fore
SplineSet
404 435 m 1
 317 435 l 1
 317 668 602 989 602 1186 c 1
 600 1318 510 1373 377 1373 c 0
 257 1373 166 1322 118 1292 c 1
 73 1427 l 1
 163 1498 293 1524 404 1524 c 0
 614 1524 765 1408 765 1200 c 0
 765 927 554 770 404 435 c 1
242 120 m 0
 242 186 287 252 375 252 c 0
 464 252 508 186 508 120 c 0
 508 54 464 -12 375 -12 c 0
 287 -12 242 54 242 120 c 0
EndSplineSet
EndChar

StartChar: at
Encoding: 32 64 33
Width: 1814
GlyphClass: 2
Flags: MW
HStem: -131 126<694 967 694 979> 259 122<1270 1370.5 1270 1392.5> 268 128<786 887> 978 121<862 981> 1368 124<737.5 1124.5>
VStem: 111 134<442.5 856.5 442.5 885.5> 538 142<545.5 709.5 545.5 748.5> 1572 131<674.5 971>
LayerCount: 2
Fore
SplineSet
1703 784 m 0xdf
 1703 460 1495 259 1290 259 c 0xdf
 1183 259 1105 321 1090 430 c 1
 1045 366 952 268 822 268 c 0xbf
 649 268 538 401 538 616 c 0
 538 881 686 1099 956 1099 c 0
 1051 1099 1175 1073 1260 1044 c 1
 1232 846 1195 644 1195 523 c 0
 1195 426 1234 381 1306 381 c 0
 1435 381 1572 558 1572 791 c 0
 1572 1151 1307 1368 942 1368 c 0
 533 1368 245 1064 245 649 c 0
 245 236 502 -5 886 -5 c 0
 1048 -5 1201 33 1332 108 c 1
 1367 -3 l 1
 1241 -88 1073 -131 885 -131 c 0
 422 -131 111 163 111 645 c 0
 111 1126 458 1492 951 1492 c 0
 1379 1492 1703 1216 1703 784 c 0xdf
680 609 m 0
 680 482 731 396 841 396 c 0xbf
 991 396 1053 535 1077 730 c 0
 1087 805 1095 882 1103 958 c 1
 1066 971 1005 978 957 978 c 0
 767 978 680 810 680 609 c 0
EndSplineSet
EndChar

StartChar: A
Encoding: 33 65 34
Width: 1302
GlyphClass: 2
Flags: MW
HStem: 0 21G<3 179 3 3 1121 1299 1121 1121> 469 145<416 892 416 948 358 892> 1462 20G<571 748 748 748>
LayerCount: 2
Fore
SplineSet
892 614 m 1
 892 614 681 1227 659 1303 c 1
 639 1237 416 614 416 614 c 1
 892 614 l 1
1121 0 m 1
 948 469 l 1
 358 469 l 1
 179 0 l 1
 3 0 l 1
 571 1482 l 1
 748 1482 l 1
 1299 0 l 1
 1121 0 l 1
EndSplineSet
EndChar

StartChar: B
Encoding: 34 66 35
Width: 1286
GlyphClass: 2
Flags: MW
HStem: 0 142<347 656 656 690> 704 139<347 664 347 614> 1333 146<347 589 347 347>
VStem: 174 173<142 704 843 1333> 977 181<1079 1186.5> 1032 181<329 509.5 290 533.5>
LayerCount: 2
Fore
SplineSet
347 704 m 1xf4
 347 142 l 1
 656 142 l 2
 904 142 1032 230 1032 428 c 0
 1032 639 889 704 614 704 c 2
 347 704 l 1xf4
347 843 m 1
 664 843 l 2
 855 843 977 894 977 1089 c 0xf8
 977 1284 838 1333 589 1333 c 2
 347 1333 l 1
 347 843 l 1
174 1479 m 1
 598 1479 l 2
 973 1479 1158 1372 1158 1115 c 0xf8
 1158 1043 1140 856 910 783 c 1
 1115 744 1213 598 1213 421 c 0xf4
 1213 159 1043 0 690 0 c 2
 174 0 l 1
 174 1479 l 1
EndSplineSet
EndChar

StartChar: C
Encoding: 35 67 36
Width: 1290
GlyphClass: 2
Flags: MW
HStem: -22 152<645 890 645 892.5> 1352 152<652 889>
VStem: 112 185<563.5 913.5 563.5 967.5>
LayerCount: 2
Fore
SplineSet
823 1352 m 0
 481 1352 297 1089 297 738 c 0
 297 389 463 130 827 130 c 0
 953 130 1074 167 1181 219 c 1
 1210 72 l 1
 1110 9 978 -22 807 -22 c 0
 353 -22 112 289 112 745 c 0
 112 1190 377 1504 821 1504 c 0
 996 1504 1132 1464 1241 1394 c 1
 1173 1253 l 1
 1075 1312 955 1352 823 1352 c 0
EndSplineSet
EndChar

StartChar: D
Encoding: 36 68 37
Width: 1502
GlyphClass: 2
Flags: MW
HStem: 0 151<347 608 608 613> 1328 151<347 579 347 347>
VStem: 174 173<151 1328 151 1479 151 1479> 1205 185<541.5 949>
LayerCount: 2
Fore
SplineSet
1205 736 m 0
 1205 1162 972 1328 579 1328 c 2
 347 1328 l 1
 347 151 l 1
 608 151 l 2
 994 151 1205 347 1205 736 c 0
1390 741 m 0
 1390 252 1095 0 613 0 c 2
 174 0 l 1
 174 1479 l 1
 584 1479 l 2
 1069 1479 1390 1255 1390 741 c 0
EndSplineSet
EndChar

StartChar: E
Encoding: 37 69 38
Width: 1143
GlyphClass: 2
Flags: MW
HStem: 0 153<347 1029> 691 151<347 982 347 982> 1326 153<347 1015 347 347>
VStem: 174 173<153 691 842 1326>
LayerCount: 2
Fore
SplineSet
174 0 m 1
 174 1479 l 1
 1022 1479 l 1
 1015 1326 l 1
 347 1326 l 1
 347 842 l 1
 982 842 l 1
 982 691 l 1
 347 691 l 1
 347 153 l 1
 1037 153 l 1
 1029 0 l 1
 174 0 l 1
EndSplineSet
EndChar

StartChar: F
Encoding: 38 70 39
Width: 1041
GlyphClass: 2
Flags: MW
HStem: 0 21G<174 347 174 174> 660 147<347 958 347 958> 1326 153<347 988 347 347>
VStem: 174 173<0 660 807 1326>
LayerCount: 2
Fore
SplineSet
347 0 m 1
 174 0 l 1
 174 1479 l 1
 995 1479 l 1
 988 1326 l 1
 347 1326 l 1
 347 807 l 1
 958 807 l 1
 958 660 l 1
 347 660 l 1
 347 0 l 1
EndSplineSet
EndChar

StartChar: G
Encoding: 39 71 40
Width: 1461
GlyphClass: 2
Flags: MW
HStem: -22 151<664 908.5 664 920> 614 151<826 1169 820 1331> 1352 152<667 918>
VStem: 113 184<556 913.5 556 961> 1169 162<192 614 614 614>
LayerCount: 2
Fore
SplineSet
819 -22 m 0
 360 -22 113 297 113 738 c 0
 113 1184 380 1504 849 1504 c 0
 1023 1504 1172 1463 1297 1388 c 1
 1231 1245 l 1
 1125 1306 985 1352 851 1352 c 0
 483 1352 297 1089 297 738 c 0
 297 374 476 129 852 129 c 0
 965 129 1087 160 1169 192 c 1
 1169 614 l 1
 820 614 l 1
 826 765 l 1
 1331 765 l 1
 1331 89 l 1
 1163 9 1021 -22 819 -22 c 0
EndSplineSet
EndChar

StartChar: H
Encoding: 40 72 41
Width: 1488
GlyphClass: 2
Flags: MW
HStem: 0 21G<174 347 174 174 1141 1314 1141 1141> 692 152<347 1141 347 1141> 1459 20G<174 347 347 347 1141 1314 1314 1314>
VStem: 174 173<0 692 0 844 844 1479> 1141 173<0 692 692 692 844 1479>
LayerCount: 2
Fore
SplineSet
1314 0 m 1
 1141 0 l 1
 1141 692 l 1
 347 692 l 1
 347 0 l 1
 174 0 l 1
 174 1479 l 1
 347 1479 l 1
 347 844 l 1
 1141 844 l 1
 1141 1479 l 1
 1314 1479 l 1
 1314 0 l 1
EndSplineSet
EndChar

StartChar: I
Encoding: 41 73 42
Width: 540
GlyphClass: 2
Flags: MW
HStem: 0 21G<182 355 182 182> 1459 20G<182 355 355 355>
VStem: 182 173<0 1479>
LayerCount: 2
Fore
SplineSet
355 0 m 1
 182 0 l 1
 182 1479 l 1
 355 1479 l 1
 355 0 l 1
EndSplineSet
EndChar

StartChar: J
Encoding: 42 74 43
Width: 550
GlyphClass: 2
Flags: MW
HStem: -214 142<-19 16 -19 -19> 1476 20G<226 403 403 403>
VStem: 226 177<181 241 241 1496>
LayerCount: 2
Fore
SplineSet
226 181 m 2
 226 1496 l 1
 403 1496 l 1
 403 241 l 2
 403 -67 368 -214 16 -214 c 2
 -19 -214 l 1
 -40 -72 l 1
 34 -72 l 2
 216 -72 226 33 226 181 c 2
EndSplineSet
EndChar

StartChar: K
Encoding: 43 75 44
Width: 1242
GlyphClass: 2
Flags: MW
HStem: 0 21G<173 347 173 173 1048 1260 1048 1048> 1459 20G<173 347 347 347 997 1214 1214 1214>
VStem: 173 174<0 587 0 753 753 1479>
LayerCount: 2
Fore
SplineSet
1260 0 m 1
 1048 0 l 1
 482 706 l 1
 347 587 l 1
 347 0 l 1
 173 0 l 1
 173 1479 l 1
 347 1479 l 1
 347 753 l 1
 997 1479 l 1
 1214 1479 l 1
 614 813 l 1
 1260 0 l 1
EndSplineSet
EndChar

StartChar: L
Encoding: 44 76 45
Width: 1021
GlyphClass: 2
Flags: MW
HStem: 0 154<348 993> 1459 20G<174 348 348 348>
VStem: 174 174<154 1479 154 1479 154 1479>
LayerCount: 2
Fore
SplineSet
174 0 m 1
 174 1479 l 1
 348 1479 l 1
 348 154 l 1
 999 154 l 1
 993 0 l 1
 174 0 l 1
EndSplineSet
EndChar

StartChar: M
Encoding: 45 77 46
Width: 1817
GlyphClass: 2
Flags: MW
HStem: 0 21G<175 337 175 175 1474 1474 1474 1642> 1459 20G<175 399 399 399 1424 1642 1642 1642>
VStem: 175 162<0 886 0 1479> 1474 168<0 890 890 890>
LayerCount: 2
Fore
SplineSet
822 91 m 1
 368 1147 l 1
 330 1248 l 1
 337 886 l 1
 337 0 l 1
 175 0 l 1
 175 1479 l 1
 399 1479 l 1
 914 301 l 1
 1424 1479 l 1
 1642 1479 l 1
 1642 0 l 1
 1474 0 l 1
 1474 890 l 1
 1481 1244 l 1
 1444 1143 l 1
 991 91 l 1
 822 91 l 1
EndSplineSet
EndChar

StartChar: N
Encoding: 46 78 47
Width: 1516
GlyphClass: 2
Flags: MW
HStem: 0 21G<174 336 174 174 1146 1342 1146 1146> 1459 20G<174 367 367 367 1181 1342 1342 1342>
VStem: 174 162<0 858 0 1479> 1181 161<615 1479>
LayerCount: 2
Fore
SplineSet
1342 0 m 1
 1146 0 l 1
 378 1164 l 1
 328 1233 l 1
 333 1102 336 977 336 858 c 2
 336 0 l 1
 174 0 l 1
 174 1479 l 1
 367 1479 l 1
 1137 315 l 1
 1188 246 l 1
 1188 246 1181 565 1181 615 c 2
 1181 1479 l 1
 1342 1479 l 1
 1342 0 l 1
EndSplineSet
EndChar

StartChar: O
Encoding: 47 79 48
Width: 1626
GlyphClass: 2
Flags: MW
HStem: -22 151<639.5 989 639.5 1039> 1353 152<644 986>
VStem: 112 184<554 931 554 974.5> 1329 185<554 930.5>
LayerCount: 2
Fore
SplineSet
296 739 m 0
 296 369 465 129 814 129 c 0
 1164 129 1329 369 1329 739 c 0
 1329 1122 1157 1353 815 1353 c 0
 473 1353 296 1123 296 739 c 0
1514 739 m 0
 1514 288 1264 -22 814 -22 c 0
 358 -22 112 282 112 740 c 0
 112 1209 367 1505 815 1505 c 0
 1256 1505 1514 1206 1514 739 c 0
EndSplineSet
EndChar

StartChar: P
Encoding: 48 80 49
Width: 1159
GlyphClass: 2
Flags: MW
HStem: 0 21G<146 323 146 146> 625 153<550 753.5 550 788.5> 1337 159<323 628 628 632 323 323>
VStem: 146 177<0 638 780 1337> 950 180<1015.5 1178.5>
LayerCount: 2
Fore
SplineSet
323 0 m 1
 146 0 l 1
 146 1496 l 1
 628 1496 l 2
 912 1496 1130 1382 1130 1093 c 0
 1130 815 1010 625 567 625 c 0
 505 625 399 631 323 638 c 1
 323 0 l 1
584 778 m 0
 923 778 950 941 950 1090 c 0
 950 1267 817 1337 632 1337 c 2
 323 1337 l 1
 323 780 l 1
 323 780 516 778 584 778 c 0
EndSplineSet
EndChar

StartChar: Q
Encoding: 49 81 50
Width: 1626
GlyphClass: 2
Flags: MW
HStem: -22 151<639.5 836.5> 1353 152<644 986>
VStem: 112 184<554 931 554 974.5> 1329 185<569 930.5>
LayerCount: 2
Fore
SplineSet
1267 -470 m 1
 1228 -431 1027 -188 942 -13 c 1
 901 -19 859 -22 814 -22 c 0
 358 -22 112 282 112 740 c 0
 112 1209 367 1505 815 1505 c 0
 1256 1505 1514 1206 1514 739 c 0
 1514 399 1372 139 1108 31 c 1
 1108 31 1255 -221 1385 -350 c 1
 1267 -470 l 1
814 129 m 0
 1164 129 1329 369 1329 739 c 0
 1329 1122 1157 1353 815 1353 c 0
 473 1353 296 1123 296 739 c 0
 296 369 465 129 814 129 c 0
EndSplineSet
EndChar

StartChar: R
Encoding: 50 82 51
Width: 1339
GlyphClass: 2
Flags: MW
HStem: 0 21G<147 324 147 147 1072 1272 1072 1072> 684 153<579.5 824> 1341 155<324 324 324 620 620 720>
VStem: 147 177<0 692 841 1341> 1033 169<1014 1180>
LayerCount: 2
Fore
SplineSet
324 1341 m 1
 324 841 l 1
 447 840 569 837 692 837 c 0
 956 837 1033 926 1033 1102 c 0
 1033 1258 953 1341 720 1341 c 2
 324 1341 l 1
1272 0 m 1
 1072 0 l 1
 868 464 l 2
 829 552 793 638 762 689 c 1
 733 687 623 684 589 684 c 0
 570 684 324 692 324 692 c 1
 324 0 l 1
 147 0 l 1
 147 1496 l 1
 620 1496 l 2
 976 1496 1202 1442 1202 1105 c 0
 1202 920 1102 777 920 724 c 1
 920 719 996 597 1030 522 c 2
 1272 0 l 1
EndSplineSet
EndChar

StartChar: S
Encoding: 51 83 52
Width: 1227
GlyphClass: 2
Flags: MW
HStem: -23 153<545.5 747 545.5 783> 1372 153<519 719>
VStem: 96 180<1062.5 1207.5 1062.5 1254.5> 966 179<325 486>
LayerCount: 2
Fore
SplineSet
146 244 m 1
 280 178 450 130 641 130 c 0
 853 130 966 224 966 426 c 0
 966 546 917 627 727 675 c 2
 433 749 l 2
 227 801 96 911 96 1109 c 0
 96 1400 314 1525 642 1525 c 0
 825 1525 987 1482 1089 1418 c 1
 1039 1277 l 1
 960 1321 800 1372 638 1372 c 0
 400 1372 276 1294 276 1121 c 0
 276 1004 354 941 498 906 c 2
 779 838 l 2
 1003 784 1145 676 1145 432 c 0
 1145 121 936 -23 630 -23 c 0
 370 -23 185 44 94 100 c 1
 146 244 l 1
EndSplineSet
EndChar

StartChar: T
Encoding: 52 84 53
Width: 1099
GlyphClass: 2
Flags: MW
HStem: 0 21G<462 636 462 462> 1326 153<7 462 7 1091 636 636 636 1091>
VStem: 462 174<0 1326>
LayerCount: 2
Fore
SplineSet
636 0 m 1
 462 0 l 1
 462 1326 l 1
 7 1326 l 1
 7 1479 l 1
 1091 1479 l 1
 1091 1326 l 1
 636 1326 l 1
 636 0 l 1
EndSplineSet
EndChar

StartChar: U
Encoding: 53 85 54
Width: 1438
GlyphClass: 2
Flags: MW
HStem: -22 149<586.5 848 586.5 909.5> 1459 20G<156 330 330 330 1104 1277 1277 1277>
VStem: 156 174<521 1479> 1104 173<519 1479>
LayerCount: 2
Fore
SplineSet
1277 1479 m 1
 1277 519 l 2
 1277 192 1106 -22 713 -22 c 0
 320 -22 156 192 156 521 c 2
 156 1479 l 1
 330 1479 l 1
 330 518 l 2
 330 250 454 127 719 127 c 0
 977 127 1104 251 1104 519 c 2
 1104 1479 l 1
 1277 1479 l 1
EndSplineSet
EndChar

StartChar: V
Encoding: 54 86 55
Width: 1242
GlyphClass: 2
Flags: MW
HStem: 0 21G<530 710 530 530> 1459 20G<-5 180 180 180 1062 1247 1247 1247>
LayerCount: 2
Fore
SplineSet
1062 1479 m 1
 1247 1479 l 1
 710 0 l 1
 530 0 l 1
 -5 1479 l 1
 180 1479 l 1
 509 541 l 2
 550 424 587 310 620 196 c 1
 631 250 675 383 732 544 c 0
 837 844 961 1195 1062 1479 c 1
EndSplineSet
EndChar

StartChar: W
Encoding: 55 87 56
Width: 2013
GlyphClass: 2
Flags: MW
HStem: 0 21G<446 446 446 634 1372 1372 1372 1561> 1459 20G<0 181 181 181 1832 2013 2013 2013>
LayerCount: 2
Fore
SplineSet
446 0 m 1
 0 1479 l 1
 181 1479 l 1
 547 206 l 1
 913 1452 l 1
 1108 1452 l 1
 1463 205 l 1
 1832 1479 l 1
 2013 1479 l 1
 1561 0 l 1
 1372 0 l 1
 1012 1243 l 1
 634 0 l 1
 446 0 l 1
EndSplineSet
EndChar

StartChar: X
Encoding: 56 88 57
Width: 1240
GlyphClass: 2
Flags: MW
HStem: 0 21G<9 197 9 9 1032 1231 1032 1032> 1459 20G<42 243 243 243 1024 1209 1209 1209>
LayerCount: 2
Fore
SplineSet
1231 0 m 1
 1032 0 l 1
 620 661 l 1
 197 0 l 1
 9 0 l 1
 515 772 l 1
 42 1479 l 1
 243 1479 l 1
 626 887 l 1
 1024 1479 l 1
 1209 1479 l 1
 733 775 l 1
 1231 0 l 1
EndSplineSet
EndChar

StartChar: Y
Encoding: 57 89 58
Width: 1194
GlyphClass: 2
Flags: MW
HStem: 0 21G<498 673 498 498> 1459 20G<-1 186 186 186 1007 1195 1195 1195>
VStem: 498 175<0 586 586 586>
LayerCount: 2
Fore
SplineSet
591 754 m 1
 1007 1479 l 1
 1195 1479 l 1
 673 590 l 1
 673 0 l 1
 498 0 l 1
 498 586 l 1
 -1 1479 l 1
 186 1479 l 1
 591 754 l 1
EndSplineSet
EndChar

StartChar: Z
Encoding: 58 90 59
Width: 1184
GlyphClass: 2
Flags: MW
HStem: 0 154<302 1112> 1325 154<115 890 115 1111>
LayerCount: 2
Fore
SplineSet
86 0 m 1
 86 136 l 1
 890 1325 l 1
 115 1325 l 1
 115 1479 l 1
 1111 1479 l 1
 1111 1350 l 1
 302 154 l 1
 1118 154 l 1
 1112 0 l 1
 86 0 l 1
EndSplineSet
EndChar

StartChar: bracketleft
Encoding: 59 91 60
Width: 676
GlyphClass: 2
Flags: MW
HStem: -293 132<316 596 316 596> 1351 132<316 596 316 316>
VStem: 143 173<-161 1351 -161 1483 -161 1483> 143 453<-293 -161 1351 1483>
LayerCount: 2
Fore
SplineSet
596 -293 m 1xd0
 143 -293 l 1
 143 1483 l 1
 596 1483 l 1
 596 1351 l 1xd0
 316 1351 l 1
 316 -161 l 1xe0
 596 -161 l 1
 596 -293 l 1xd0
EndSplineSet
EndChar

StartChar: backslash
Encoding: 60 92 61
Width: 843
GlyphClass: 2
Flags: W
LayerCount: 2
Fore
SplineSet
208 1464 m 1
 807 -60 l 1
 651 -60 l 1
 52 1464 l 1
 208 1464 l 1
EndSplineSet
EndChar

StartChar: bracketright
Encoding: 61 93 62
Width: 676
GlyphClass: 2
Flags: MW
HStem: -293 132<80 360 80 533 80 360> 1351 132<80 360 80 533>
VStem: 80 453<-293 -161 -161 -161 1351 1483 -293 1483> 360 173<-161 1351 1351 1351>
LayerCount: 2
Fore
SplineSet
80 -161 m 1xe0
 360 -161 l 1
 360 1351 l 1xd0
 80 1351 l 1
 80 1483 l 1
 533 1483 l 1
 533 -293 l 1
 80 -293 l 1
 80 -161 l 1xe0
EndSplineSet
EndChar

StartChar: asciicircum
Encoding: 62 94 63
Width: 1157
GlyphClass: 2
Flags: W
LayerCount: 2
Fore
SplineSet
69 589 m 1
 514 1516 l 1
 616 1516 l 1
 1086 589 l 1
 943 589 l 1
 565 1335 l 1
 214 589 l 1
 69 589 l 1
EndSplineSet
EndChar

StartChar: underscore
Encoding: 63 95 64
Width: 1085
GlyphClass: 2
Flags: MW
HStem: -304 134<73 1012 73 1012>
LayerCount: 2
Fore
SplineSet
1012 -304 m 1
 73 -304 l 1
 73 -170 l 1
 1012 -170 l 1
 1012 -304 l 1
EndSplineSet
EndChar

StartChar: grave
Encoding: 64 96 65
Width: 643
GlyphClass: 2
Flags: MW
HStem: 1251 387<85 408 85 520>
VStem: 85 435<1251 1638>
LayerCount: 2
Fore
SplineSet
408 1251 m 1
 85 1638 l 1
 335 1638 l 1
 520 1251 l 1
 408 1251 l 1
EndSplineSet
EndChar

StartChar: a
Encoding: 65 97 66
Width: 1098
GlyphClass: 2
Flags: MW
HStem: -23 135<401 506> 0 21G<823 823 823 953> 981 139<511 642.5>
VStem: 94 171<229.5 367 229.5 407> 786 167<354 539 539 539> 823 130<0 726>
LayerCount: 2
Fore
SplineSet
460 112 m 0xb8
 615 112 751 203 786 354 c 1
 786 539 l 1
 759 537 682 529 653 528 c 1
 365 503 265 444 265 290 c 0
 265 169 342 112 460 112 c 0xb8
823 0 m 1x74
 817 26 799 112 794 138 c 1
 671 15 577 -23 435 -23 c 0
 236 -23 94 82 94 289 c 0
 94 525 290 614 589 639 c 0
 655 645 722 650 788 656 c 1
 788 753 l 2
 788 905 721 981 564 981 c 0
 458 981 340 951 237 901 c 1
 228 922 197 1009 189 1030 c 1
 284 1083 425 1120 567 1120 c 0
 835 1120 953 1018 953 726 c 2xb8
 953 0 l 1
 823 0 l 1x74
EndSplineSet
EndChar

StartChar: b
Encoding: 66 98 67
Width: 1215
GlyphClass: 2
Flags: MW
HStem: -23 139<582 753 525.5 808.5> 0 21G<148 291 148 148> 981 139<587.5 754> 1513 20G<315 315>
VStem: 148 143<0 1523> 148 167<1129.5 1170 1170 1523 1523 1523> 951 172<429.5 669.5>
LayerCount: 2
Fore
SplineSet
642 981 m 0xb2
 432 981 314 834 314 550 c 0
 314 277 410 116 641 116 c 0
 865 116 951 310 951 549 c 0
 951 790 866 981 642 981 c 0xb2
659 1120 m 0
 958 1120 1123 879 1123 554 c 0
 1123 217 960 -23 657 -23 c 0xb6
 507 -23 385 47 308 152 c 1
 291 0 l 1
 148 0 l 1x7a
 148 1523 l 1
 315 1533 l 1
 315 1170 l 2x76
 315 1089 314 1012 311 940 c 1
 387 1048 516 1120 659 1120 c 0
EndSplineSet
EndChar

StartChar: c
Encoding: 67 99 68
Width: 968
GlyphClass: 2
Flags: MW
HStem: -23 142<500.5 656.5 500.5 662> 977 143<502 644.5>
VStem: 92 172<414 545>
LayerCount: 2
Fore
SplineSet
607 -23 m 0
 277 -23 92 214 92 545 c 0
 93 880 284 1120 611 1120 c 0
 726 1120 841 1088 901 1044 c 1
 855 914 l 1
 777 956 681 977 608 977 c 0
 396 977 264 813 264 544 c 0
 264 284 392 119 609 119 c 0
 704 119 794 148 873 189 c 1
 894 56 l 1
 821 3 717 -23 607 -23 c 0
EndSplineSet
EndChar

StartChar: d
Encoding: 68 100 69
Width: 1211
GlyphClass: 2
Flags: MW
HStem: -22 143<464.5 630.5> 0 21G<922 1064 922 922> 977 143<464 623.5 411 687.5> 1513 20G<1064 1064>
VStem: 92 173<424.5 668 424.5 720.5> 899 165<1040 1523 1523 1523> 922 142<0 1533>
LayerCount: 2
Fore
SplineSet
571 121 m 0xb8
 797 121 897 275 897 530 c 0
 897 817 806 977 569 977 c 0
 359 977 265 787 265 549 c 0
 265 300 358 121 571 121 c 0xb8
900 159 m 1
 830 51 706 -22 555 -22 c 0
 264 -22 92 200 92 553 c 0
 92 888 270 1120 552 1120 c 0
 695 1120 837 1053 902 945 c 1
 899 1040 l 1
 899 1523 l 1xbc
 1064 1533 l 1
 1064 0 l 1
 922 0 l 1x7a
 900 159 l 1
EndSplineSet
EndChar

StartChar: e
Encoding: 69 101 70
Width: 1108
GlyphClass: 2
Flags: MW
HStem: -23 145<508.5 681.5 508.5 689> 518 126<270 849 270 1018 265 849> 982 138<576 658>
VStem: 93 172<518 518 518 715> 849 170<644 754.5>
LayerCount: 2
Fore
SplineSet
574 982 m 0
 403 982 289 853 270 644 c 1
 849 644 l 1
 849 865 742 982 574 982 c 0
607 -23 m 0
 289 -23 93 193 93 545 c 0
 93 885 286 1116 576 1120 c 1
 849 1120 1019 917 1019 608 c 0
 1019 583 1018 545 1018 518 c 1
 265 518 l 1
 269 266 404 122 613 122 c 0
 750 122 865 163 962 214 c 1
 988 79 l 1
 883 15 771 -23 607 -23 c 0
EndSplineSet
EndChar

StartChar: f
Encoding: 70 102 71
Width: 669
GlyphClass: 2
Flags: MW
HStem: 0 21G<212 379 212 212> 973 124<34 212 379 643> 1416 133<489 566.5 426.5 579.5>
VStem: 212 167<0 973 0 973 1097 1146 1146 1146>
LayerCount: 2
Fore
SplineSet
560 1416 m 0
 418 1416 379 1340 379 1148 c 2
 379 1097 l 1
 643 1097 l 1
 643 973 l 1
 379 973 l 1
 379 0 l 1
 212 0 l 1
 212 973 l 1
 34 973 l 1
 48 1083 l 1
 212 1097 l 1
 212 1146 l 1
 214 1428 311 1549 542 1549 c 0
 591 1549 648 1543 706 1534 c 1
 695 1403 l 1
 647 1410 599 1416 560 1416 c 0
EndSplineSet
EndChar

StartChar: g
Encoding: 71 103 72
Width: 1187
GlyphClass: 2
Flags: MW
HStem: -502 151<312 312 312 497> 1 142<455 631> 979 141<451 629 388.5 684> 1077 20G<889 1052 1052 1052>
VStem: 70 172<460 649 460 701> 889 163<516 597 597 701 951 1097>
LayerCount: 2
Fore
SplineSet
569 143 m 0xec
 805 143 889 319 889 516 c 2
 889 597 l 2
 889 805 798 979 570 979 c 0
 332 979 242 744 242 554 c 0
 242 366 341 143 569 143 c 0xec
312 -502 m 1
 297 -351 l 1
 501 -351 l 2
 846 -351 884 -193 884 83 c 2
 884 180 l 1
 812 76 718 1 544 1 c 0
 219 1 70 294 70 545 c 0
 70 857 221 1120 556 1120 c 0xec
 702 1120 805 1064 889 951 c 1
 889 1097 l 1
 1052 1097 l 1xdc
 1052 79 l 2
 1052 -206 1010 -502 497 -502 c 2
 312 -502 l 1
EndSplineSet
EndChar

StartChar: h
Encoding: 72 104 73
Width: 1112
GlyphClass: 2
Flags: MW
HStem: 0 21G<145 312 145 145 882 1049 882 882> 978 142<599 736> 1513 20G<312 312>
VStem: 145 167<0 585 1061 1087 1087 1523 1523 1523> 882 167<0 663 663 689 0 769.5>
LayerCount: 2
Fore
SplineSet
882 0 m 1
 882 663 l 2
 882 876 826 978 646 978 c 0
 474 978 354 881 321 752 c 1
 315 702 312 646 312 585 c 2
 312 0 l 1
 145 0 l 1
 145 1523 l 1
 312 1533 l 1
 312 1087 l 2
 312 1035 310 988 308 946 c 1
 392 1050 516 1120 682 1120 c 0
 930 1120 1049 972 1049 689 c 2
 1049 0 l 1
 882 0 l 1
EndSplineSet
EndChar

StartChar: i
Encoding: 73 105 74
Width: 466
GlyphClass: 2
Flags: MW
HStem: 0 21G<159 327 159 159> 1077 20G<159 327 327 327> 1298 198<159 327 159 327>
VStem: 159 168<0 1097 0 1097 1298 1496>
LayerCount: 2
Fore
SplineSet
327 1097 m 1
 327 0 l 1
 159 0 l 1
 159 1097 l 1
 327 1097 l 1
327 1496 m 1
 327 1298 l 1
 159 1298 l 1
 159 1496 l 1
 327 1496 l 1
EndSplineSet
EndChar

StartChar: j
Encoding: 74 106 75
Width: 445
GlyphClass: 2
Flags: MW
HStem: -502 151<-55 -25 -25 -3 -55 -55> 1077 20G<162 330 330 330> 1298 198<162 330 162 330>
VStem: 162 168<-121 1097 1298 1496>
LayerCount: 2
Fore
SplineSet
330 1097 m 1
 330 -139 l 2
 330 -407 270 -502 -3 -502 c 2
 -55 -502 l 1
 -77 -351 l 1
 -25 -351 l 2
 157 -351 162 -286 162 -121 c 2
 162 1097 l 1
 330 1097 l 1
330 1496 m 1
 330 1298 l 1
 162 1298 l 1
 162 1496 l 1
 330 1496 l 1
EndSplineSet
EndChar

StartChar: k
Encoding: 75 107 76
Width: 1041
GlyphClass: 2
Flags: MW
HStem: 0 21G<145 145 145 311 834 834 834 1042> 1077 20G<798 1010 1010 1010> 1513 20G<311 311>
VStem: 145 166<0 435 596 736 736 1523 1523 1523>
LayerCount: 2
Fore
SplineSet
145 0 m 1
 145 1523 l 1
 311 1533 l 1
 311 736 l 1
 311 596 l 1
 323 609 335 623 348 637 c 0
 475 775 650 948 798 1097 c 1
 1010 1097 l 1
 554 635 l 1
 1042 0 l 1
 834 0 l 1
 433 540 l 1
 311 435 l 1
 311 0 l 1
 145 0 l 1
EndSplineSet
EndChar

StartChar: l
Encoding: 76 108 77
Width: 569
GlyphClass: 2
Flags: MW
HStem: -20 138<399.5 452> 1513 20G<311 311>
VStem: 145 166<365 431 431 1523 1523 1523>
LayerCount: 2
Fore
SplineSet
438 -20 m 0
 226 -20 145 79 145 365 c 2
 145 1523 l 1
 311 1533 l 1
 311 431 l 2
 311 186 323 118 476 118 c 0
 525 118 555 124 602 130 c 1
 611 -3 l 1
 538 -15 466 -20 438 -20 c 0
EndSplineSet
EndChar

StartChar: m
Encoding: 77 109 78
Width: 1773
GlyphClass: 2
Flags: MW
HStem: 0 21G<145 312 145 145 849 1016 849 849 1536 1703 1536 1536> 977 143<571.5 723.5 1270.5 1419.5> 1077 20G<143 283 283 283>
VStem: 143 140<1063 1097> 145 167<0 587> 849 167<0 589 589 598 0 703> 1536 167<0 571 571 689.5>
LayerCount: 2
Fore
SplineSet
1536 0 m 1xd6
 1536 571 l 2
 1536 808 1516 977 1323 977 c 0
 1176 977 1069 894 1025 752 c 1
 1019 704 1016 654 1016 598 c 2
 1016 0 l 1
 849 0 l 1
 849 589 l 2
 849 817 815 977 632 977 c 0
 469 977 357 886 321 754 c 1
 315 703 312 648 312 587 c 2
 312 0 l 1
 145 0 l 1xce
 145 0 143 1029 143 1097 c 1
 283 1097 l 1xb6
 304 940 l 1
 364 1032 488 1120 655 1120 c 0
 868 1120 951 1011 982 925 c 1
 1063 1057 1192 1120 1349 1120 c 0
 1597 1120 1703 974 1703 706 c 2
 1703 0 l 1
 1536 0 l 1xd6
EndSplineSet
EndChar

StartChar: n
Encoding: 78 110 79
Width: 1184
GlyphClass: 2
Flags: MW
HStem: 0 21G<143 143 143 312 882 882 882 1049> 977 143<598.5 733> 1077 20G<143 283 283 283>
VStem: 143 140<0 1097 1097 1097> 143 169<0 600 0 1097> 882 167<0 686>
LayerCount: 2
Fore
SplineSet
143 0 m 1xcc
 143 1097 l 1
 283 1097 l 1xb4
 304 940 l 1
 386 1043 520 1120 677 1120 c 0
 930 1120 1049 980 1049 686 c 2
 1049 0 l 1
 882 0 l 1
 882 0 882 660 881 707 c 0
 876 888 817 977 649 977 c 0
 471 977 355 880 322 754 c 1
 315 707 312 656 312 600 c 2
 312 0 l 1
 143 0 l 1xcc
EndSplineSet
EndChar

StartChar: o
Encoding: 79 111 80
Width: 1201
GlyphClass: 2
Flags: MW
HStem: -23 139<489.5 717.5 489.5 759> 980 140<488 718>
VStem: 92 173<421 673 421 715.5> 935 173<421.5 676>
LayerCount: 2
Fore
SplineSet
265 546 m 0
 265 296 375 116 604 116 c 0
 831 116 935 295 935 548 c 0
 935 804 835 980 601 980 c 0
 375 980 265 800 265 546 c 0
1108 549 m 0
 1108 216 922 -23 596 -23 c 0
 283 -23 92 219 92 548 c 0
 92 883 281 1120 605 1120 c 0
 926 1120 1108 879 1108 549 c 0
EndSplineSet
EndChar

StartChar: p
Encoding: 80 112 81
Width: 1201
GlyphClass: 2
Flags: MW
HStem: -476 21G<143 143> -23 141<579.5 734 511 795> 978 142<576.5 733.5> 1077 20G<143 290 290 290>
VStem: 143 161 937 172<433 667>
LayerCount: 2
Fore
SplineSet
143 -476 m 1xec
 143 1097 l 1
 290 1097 l 1xdc
 306 948 l 1
 389 1047 501 1120 652 1120 c 0
 959 1120 1109 879 1109 543 c 0
 1109 216 938 -23 652 -23 c 0
 507 -23 377 48 304 150 c 1
 308 78 310 8 310 -60 c 2
 310 -465 l 1
 143 -476 l 1xec
629 118 m 0
 839 118 937 317 937 549 c 0
 937 785 840 978 627 978 c 0xec
 401 978 309 820 309 567 c 0
 309 282 393 118 629 118 c 0
EndSplineSet
EndChar

StartChar: q
Encoding: 81 113 82
Width: 1211
GlyphClass: 2
Flags: MW
HStem: -476 21G<898 898> -23 144<465 629> 976 144<465 638 408 691> 1077 20G<917 1065 1065 1065>
VStem: 96 172<426.5 665 426.5 709.5> 898 167<-466 11 11 38> 917 148<-466 1097>
LayerCount: 2
Fore
SplineSet
552 -23 m 0xdc
 258 -23 96 217 96 541 c 0
 96 878 256 1120 560 1120 c 0xec
 716 1120 824 1045 905 942 c 1
 917 1097 l 1
 1065 1097 l 1xda
 1065 -466 l 1
 898 -476 l 1
 898 11 l 2
 898 65 900 114 903 159 c 1
 830 50 706 -23 552 -23 c 0xdc
574 121 m 0
 802 121 896 271 899 529 c 1
 899 813 809 976 573 976 c 0
 357 976 268 783 268 547 c 0
 268 306 356 121 574 121 c 0
EndSplineSet
EndChar

StartChar: r
Encoding: 82 114 83
Width: 746
GlyphClass: 2
Flags: MW
HStem: 0 21G<149 316 149 149> 955 152<567 643>
VStem: 148 139<1053.5 1097> 149 167<0 616>
LayerCount: 2
Fore
SplineSet
635 1107 m 0xe0
 665 1107 692 1105 717 1101 c 1
 711 947 l 1
 682 952 655 955 631 955 c 0
 440 955 316 804 316 616 c 2
 316 0 l 1
 149 0 l 1xd0
 149 0 148 1010 148 1097 c 1
 287 1097 l 1
 303 900 l 1
 376 1020 499 1107 635 1107 c 0xe0
EndSplineSet
EndChar

StartChar: s
Encoding: 83 115 84
Width: 953
GlyphClass: 2
Flags: MW
HStem: -23 138<393.5 535.5 393.5 590> 984 136<420.5 542.5>
VStem: 103 163<821 876 782.5 904> 710 158<296 335.5>
LayerCount: 2
Fore
SplineSet
470 -23 m 0
 313 -23 183 16 110 63 c 1
 131 204 l 1
 204 165 328 115 459 115 c 0
 612 115 705 169 710 287 c 1
 710 384 657 427 454 496 c 1
 371 525 l 1
 174 591 104 684 103 821 c 1
 103 987 242 1120 490 1120 c 0
 620 1120 731 1094 829 1048 c 1
 780 920 l 1
 695 955 595 984 490 984 c 0
 351 984 266 926 266 826 c 0
 266 739 314 707 481 650 c 0
 506 641 533 632 564 622 c 0
 786 550 868 462 868 296 c 1
 865 91 710 -23 470 -23 c 0
EndSplineSet
EndChar

StartChar: t
Encoding: 84 116 85
Width: 710
GlyphClass: 2
Flags: MW
HStem: -20 137<464 514.5> 973 124<190 190 190 191 357 662>
VStem: 191 166<314 344 344 973> 247 110<1348 1348>
LayerCount: 2
Fore
SplineSet
493 -20 m 0xe0
 273 -20 196 84 191 314 c 0
 190 361 191 973 191 973 c 1xe0
 28 973 l 1
 35 1083 l 1
 190 1097 l 1
 247 1348 l 1
 357 1352 l 1
 357 1097 l 1xd0
 662 1097 l 1
 662 973 l 1
 357 973 l 1
 357 344 l 2
 357 176 403 117 525 117 c 0
 564 117 613 125 668 133 c 1
 675 1 l 1
 596 -13 536 -20 493 -20 c 0xe0
EndSplineSet
EndChar

StartChar: u
Encoding: 85 117 86
Width: 1100
GlyphClass: 2
Flags: MW
HStem: -25 138<471 630 471 668> 1077 20G<105 273 273 273 826 994 994 994>
VStem: 105 168<366 1097> 826 168<364 366 366 1097>
LayerCount: 2
Fore
SplineSet
105 366 m 2
 105 1097 l 1
 273 1097 l 1
 273 364 l 2
 273 167 391 113 551 113 c 0
 709 113 826 169 826 364 c 2
 826 1097 l 1
 994 1097 l 1
 994 366 l 2
 994 78 785 -25 551 -25 c 0
 317 -25 105 80 105 366 c 2
EndSplineSet
EndChar

StartChar: v
Encoding: 86 118 87
Width: 1031
GlyphClass: 2
Flags: MW
HStem: 0 21G<424 424 424 606> 1077 20G<-1 178 178 178 850 1028 1028 1028>
LayerCount: 2
Fore
SplineSet
424 0 m 1
 -1 1097 l 1
 178 1097 l 1
 420 445 l 1
 454 347 520 167 520 167 c 1
 547 252 576 336 614 443 c 0
 667 592 737 786 850 1097 c 1
 1028 1097 l 1
 606 0 l 1
 424 0 l 1
EndSplineSet
EndChar

StartChar: w
Encoding: 87 119 88
Width: 1606
GlyphClass: 2
Flags: MW
HStem: 0 21G<332 512 332 332 1090 1271 1090 1090> 1077 20G<19 192 192 192 715 904 904 904 1416 1587 1587 1587>
LayerCount: 2
Fore
SplineSet
1090 0 m 1
 994 306 897 610 804 919 c 1
 715 605 611 305 512 0 c 1
 332 0 l 1
 19 1097 l 1
 192 1097 l 1
 427 199 l 1
 519 502 618 798 715 1097 c 1
 904 1097 l 1
 998 799 1094 503 1184 202 c 1
 1416 1097 l 1
 1587 1097 l 1
 1271 0 l 1
 1090 0 l 1
EndSplineSet
EndChar

StartChar: x
Encoding: 88 120 89
Width: 1057
GlyphClass: 2
Flags: MW
HStem: 0 21G<31 222 31 31 840 1025 840 840> 1077 20G<46 237 237 237 824 1015 1015 1015>
LayerCount: 2
Fore
SplineSet
433 558 m 1
 46 1097 l 1
 237 1097 l 1
 530 679 l 1
 824 1097 l 1
 1015 1097 l 1
 627 556 l 1
 1025 0 l 1
 840 0 l 1
 531 441 l 1
 222 0 l 1
 31 0 l 1
 433 558 l 1
EndSplineSet
EndChar

StartChar: y
Encoding: 89 121 90
Width: 1022
GlyphClass: 2
Flags: MW
HStem: -497 146<110 175.5 86.5 237> 1077 20G<3 180 180 180 834 1011 1011 1011>
LayerCount: 2
Fore
SplineSet
3 1097 m 1
 180 1097 l 1
 526 184 l 1
 834 1097 l 1
 1011 1097 l 1
 1011 1097 567 -125 552 -163 c 0
 463 -386 347 -497 127 -497 c 0
 93 -497 59 -494 26 -489 c 1
 16 -347 l 1
 44 -349 73 -351 100 -351 c 0
 251 -351 315 -306 376 -154 c 0
 395 -105 416 -51 437 8 c 1
 3 1097 l 1
EndSplineSet
EndChar

StartChar: z
Encoding: 90 122 91
Width: 912
GlyphClass: 2
Flags: MW
HStem: 0 132<271 849 271 849> 965 132<98 644 98 831 98 831>
LayerCount: 2
Fore
SplineSet
849 0 m 1
 83 0 l 1
 83 126 l 1
 644 965 l 1
 98 965 l 1
 98 1097 l 1
 831 1097 l 1
 831 965 l 1
 271 132 l 1
 849 132 l 1
 849 0 l 1
EndSplineSet
EndChar

StartChar: braceleft
Encoding: 91 123 92
Width: 733
GlyphClass: 2
Flags: MW
HStem: -281 138<641 641> 556 145<75 168> 1401 138<527 641>
VStem: 289 165<62 84 84 269 269 349 987 1173>
LayerCount: 2
Fore
SplineSet
454 84 m 2
 454 -85 494 -141 641 -143 c 1
 641 -281 l 1
 389 -280 289 -170 289 62 c 2
 289 269 l 2
 289 440 261 556 75 556 c 1
 75 701 l 1
 286 704 289 801 289 987 c 2
 289 1230 l 2
 289 1438 413 1539 641 1539 c 1
 641 1401 l 1
 493 1399 454 1338 454 1173 c 2
 454 908 l 2
 454 786 396 702 269 626 c 1
 403 583 454 469 454 349 c 2
 454 84 l 2
EndSplineSet
EndChar

StartChar: bar
Encoding: 92 124 93
Width: 799
GlyphClass: 2
Flags: MW
VStem: 327 145<-400 1579 -400 1579>
LayerCount: 2
Fore
SplineSet
327 1579 m 1
 472 1579 l 1
 472 -400 l 1
 327 -400 l 1
 327 1579 l 1
EndSplineSet
EndChar

StartChar: braceright
Encoding: 93 125 94
Width: 738
GlyphClass: 2
Flags: MW
HStem: -281 138<95 95> 556 145<568.5 662> 1401 138<95 219.5>
VStem: 282 165<84 269 908 987 987 1173 1173 1195>
LayerCount: 2
Fore
SplineSet
466 632 m 1
 332 674 282 789 282 908 c 2
 282 1173 l 2
 282 1338 242 1399 95 1401 c 1
 95 1539 l 1
 344 1539 447 1426 447 1195 c 2
 447 987 l 2
 447 815 469 703 662 701 c 1
 662 556 l 1
 475 556 447 440 447 269 c 2
 447 27 l 2
 447 -179 329 -280 95 -281 c 1
 95 -143 l 1
 240 -141 282 -85 282 84 c 2
 282 349 l 2
 282 477 327 539 466 632 c 1
EndSplineSet
EndChar

StartChar: asciitilde
Encoding: 94 126 95
Width: 1255
GlyphClass: 2
Flags: MW
HStem: 517 142<843 914 843 933> 663 143<342 422.5>
LayerCount: 2
Fore
SplineSet
387 663 m 0
 297 663 218 590 172 503 c 1
 120 608 l 1
 167 719 256 806 391 806 c 0
 473 806 539 783 638 739 c 0
 734 697 813 659 873 659 c 0
 955 659 1034 728 1081 815 c 1
 1137 719 l 1
 1087 597 998 517 868 517 c 0
 792 517 719 544 633 583 c 0
 532 629 458 663 387 663 c 0
EndSplineSet
EndChar

StartChar: sterling
Encoding: 98 163 99
Width: 1132
GlyphClass: 2
Flags: MW
HStem: 0 139<85 1068 85 96> 0 158<413 1068 413 1068> 681 134<83 269 83 269 441 851> 1357 146<599.5 748.5>
VStem: 269 172<449 519 519 681 438.5 681 815 911 911 993>
LayerCount: 2
Fore
SplineSet
696 1503 m 0xb8
 846 1503 963 1449 1053 1373 c 1
 975 1253 l 1
 887 1320 800 1357 697 1357 c 0
 502 1357 441 1213 441 993 c 2
 441 815 l 1
 851 815 l 1
 851 681 l 1
 441 681 l 1
 441 519 l 2
 441 358 424 234 319 153 c 1
 352 155 381 158 413 158 c 2
 1068 158 l 1
 1068 0 l 1x78
 96 0 l 1
 85 139 l 1
 221 190 269 290 269 449 c 2
 269 681 l 1
 83 681 l 1
 83 815 l 1
 269 815 l 1
 269 911 l 2
 269 1218 339 1503 696 1503 c 0xb8
EndSplineSet
EndChar

StartChar: section
Encoding: 102 167 103
Width: 1017
GlyphClass: 2
Flags: MW
HStem: -29 138<400.5 531.5 400.5 572>
VStem: 141 151<765 855.5 765 856.5> 160 158<1269 1358.5 1269 1389> 709 159<219 313.5> 727 152<729.5 827>
LayerCount: 2
Fore
SplineSet
141 797 m 0xd0
 141 916 209 1008 307 1059 c 1
 214 1118 160 1188 160 1307 c 0
 160 1471 284 1568 497 1582 c 1
 633 1594 724 1575 836 1530 c 1
 827 1481 819 1434 810 1385 c 1
 715 1428 631 1446 546 1446 c 0
 405 1446 318 1406 318 1311 c 0
 318 1227 378 1181 570 1105 c 1
 774 1022 879 936 879 789 c 0xa8
 879 670 812 573 719 514 c 1
 812 461 868 390 868 278 c 0
 868 81 698 -29 446 -29 c 0
 326 -29 225 -11 145 30 c 1
 145 185 l 1
 238 137 353 109 448 109 c 0
 615 109 709 172 709 266 c 0
 709 361 638 391 464 462 c 1
 243 547 141 632 141 797 c 0xd0
292 813 m 0xc8
 292 717 362 667 527 602 c 1
 584 578 l 1
 663 626 727 688 727 768 c 0
 727 886 605 934 437 995 c 1
 358 961 292 898 292 813 c 0xc8
EndSplineSet
EndChar

StartChar: copyright
Encoding: 104 169 105
Width: 1841
GlyphClass: 2
Flags: MW
HStem: -26 93<706 1109.5> 270 117<805.5 971> 1114 21G<1167 1167> 1182 119<793 956.5> 1493 93<701 1104.5 701 1123.5>
VStem: 117 113<586 976 586 1049.5> 434 136<676.5 893 676.5 933> 1588 113<582.5 973>
LayerCount: 2
Fore
SplineSet
1701 781 m 0
 1701 242 1317 -26 902 -26 c 0
 510 -26 117 242 117 781 c 0
 117 1318 505 1586 897 1586 c 0
 1312 1586 1701 1316 1701 781 c 0
902 67 m 0
 1353 67 1588 387 1588 778 c 0
 1588 1168 1350 1493 897 1493 c 0
 468 1493 230 1169 230 783 c 0
 230 389 469 67 902 67 c 0
1191 459 m 1
 1230 352 l 1
 1160 307 1033 270 909 270 c 0
 633 270 434 489 434 785 c 0
 434 1081 626 1301 919 1301 c 0
 1039 1301 1145 1268 1227 1211 c 1
 1167 1114 l 1
 1105 1158 1003 1182 910 1182 c 0
 676 1182 570 997 570 789 c 0
 570 564 682 387 929 387 c 0
 1021 387 1135 420 1191 459 c 1
EndSplineSet
EndChar

StartChar: uni00AD
Encoding: 108 173 109
Width: 946
GlyphClass: 2
Flags: MW
HStem: 236 150<108 843 108 843>
LayerCount: 2
Fore
SplineSet
108 236 m 1
 108 386 l 1
 843 386 l 1
 843 236 l 1
 108 236 l 1
EndSplineSet
EndChar

StartChar: registered
Encoding: 109 174 110
Width: 1824
GlyphClass: 2
Flags: MW
HStem: -26 93<706 1109.5> 716 127<731 857 857 914 731 857> 1149 128<731 847 731 731> 1493 93<701 1104.5 701 1123.5>
VStem: 117 113<586 976 586 1049.5> 599 132<301 716 843 1149> 1141 159<942 1065> 1588 113<582.5 973>
LayerCount: 2
Fore
SplineSet
1701 781 m 0
 1701 242 1317 -26 902 -26 c 0
 510 -26 117 242 117 781 c 0
 117 1318 505 1586 897 1586 c 0
 1312 1586 1701 1316 1701 781 c 0
902 67 m 0
 1353 67 1588 387 1588 778 c 0
 1588 1168 1350 1493 897 1493 c 0
 468 1493 230 1169 230 783 c 0
 230 389 469 67 902 67 c 0
857 843 m 2
 1041 843 1141 871 1141 999 c 0
 1141 1131 1055 1149 847 1149 c 2
 731 1149 l 1
 731 843 l 1
 857 843 l 2
914 716 m 1
 731 716 l 1
 731 301 l 1
 599 301 l 1
 599 1277 l 1
 857 1277 l 2
 1158 1277 1300 1184 1300 1007 c 0
 1300 877 1237 759 1040 735 c 1
 1132 662 1181 531 1320 301 c 1
 1171 301 l 1
 1046 525 l 2
 995 618 961 680 914 716 c 1
EndSplineSet
EndChar

StartChar: paragraph
Encoding: 116 182 118
Width: 1068
GlyphClass: 2
Flags: MW
HStem: 1430 131<518 737 518 518 852 927 852 852>
VStem: 13 505<1122.5 1300> 393 125<-158 847 847 847> 737 115<-158 1430 -158 1430>
LayerCount: 2
Fore
SplineSet
393 -158 m 1xb0
 393 847 l 1xb0
 172 851 13 1033 13 1212 c 0xd0
 13 1388 138 1561 461 1561 c 2
 927 1561 l 1
 927 1430 l 1
 852 1430 l 1
 852 -158 l 1
 737 -158 l 1
 737 1430 l 1
 518 1430 l 1
 518 -158 l 1
 393 -158 l 1xb0
EndSplineSet
EndChar

StartChar: AE
Encoding: 132 198 134
Width: 2092
GlyphClass: 2
Flags: MW
HStem: 0 158<1342 1966 1342 1966> 427 162<582 1130 582 1152 498 1130> 724 158<1300 1911 1300 1300> 1409 159<1069 1069 1241 1946 1241 1241>
LayerCount: 2
Fore
SplineSet
85 0 m 1
 1001 1568 l 1
 1946 1568 l 1
 1946 1409 l 1
 1241 1409 l 1
 1280 882 l 1
 1911 882 l 1
 1911 724 l 1
 1300 724 l 1
 1342 158 l 1
 1966 158 l 1
 1966 0 l 1
 1183 0 l 1
 1152 427 l 1
 498 427 l 1
 258 0 l 1
 85 0 l 1
582 589 m 1
 1130 589 l 1
 1069 1409 l 1
 582 589 l 1
EndSplineSet
EndChar

StartChar: Oslash
Encoding: 150 216 152
Width: 1626
GlyphClass: 2
Flags: MW
HStem: -22 151<785.5 989 785.5 1039> 1353 152<644 847>
VStem: 112 184<613.5 931 613.5 974.5> 1329 185<554 863>
LayerCount: 2
Fore
SplineSet
502 -232 m 1
 377 -189 l 1
 473 50 l 1
 236 166 112 414 112 740 c 0
 112 1209 367 1505 815 1505 c 0
 899 1505 977 1494 1047 1473 c 1
 1136 1693 l 1
 1267 1647 l 1
 1175 1420 l 1
 1393 1300 1514 1059 1514 739 c 0
 1514 288 1264 -22 814 -22 c 0
 736 -22 664 -13 598 4 c 1
 502 -232 l 1
989 1329 m 1
 937 1345 879 1353 815 1353 c 0
 473 1353 296 1123 296 739 c 0
 296 488 374 296 534 199 c 1
 989 1329 l 1
1114 1270 m 1
 657 148 l 1
 705 136 757 129 814 129 c 0
 1164 129 1329 369 1329 739 c 0
 1329 987 1257 1171 1114 1270 c 1
EndSplineSet
EndChar

StartChar: germandbls
Encoding: 157 223 159
Width: 1222
GlyphClass: 2
Flags: MW
HStem: 0 148<443 771 459 771 771 786> 1373 152<466 629.5>
VStem: 118 168<0 1046 1046 1056 0 1194.5> 799 189<1113.5 1242.5> 977 189<283.5 430.5>
LayerCount: 2
Fore
SplineSet
771 148 m 2xe8
 902 148 977 224 977 343 c 0xe8
 977 518 722 617 591 705 c 0
 544 737 509 775 509 822 c 0
 509 857 527 895 574 934 c 0
 673 1015 799 1045 799 1182 c 0
 799 1303 691 1373 568 1373 c 0
 364 1373 286 1246 286 1056 c 2
 286 0 l 1
 118 0 l 1
 118 1046 l 2
 118 1343 260 1525 568 1525 c 0
 818 1525 988 1398 988 1182 c 0xf0
 988 992 835 933 683 838 c 1
 870 704 1166 605 1166 348 c 0
 1166 94 1002 0 786 0 c 2
 443 0 l 1
 459 148 l 1
 771 148 l 2xe8
EndSplineSet
EndChar

StartChar: ae
Encoding: 164 230 166
Width: 1674
GlyphClass: 2
Flags: MW
HStem: -26 139<368 471.5 368 482> 499 114 534 81 534 110<1379 1404> 976 148<455.5 594.5>
VStem: 80 168<224.5 350.5 224.5 432> 714 174<615 781 615 847.5> 1404 162<644 654 654 654>
LayerCount: 2
Fore
SplineSet
888 615 m 1xaf
 1404 644 l 1x9f
 1404 654 l 1
 1402 882 1336 984 1189 984 c 0
 988 984 899 821 888 615 c 1xaf
416 113 m 0
 527 113 673 170 787 208 c 1
 742 290 717 386 711 499 c 1xcf
 689 498 667 497 647 495 c 0
 326 471 248 410 248 291 c 0
 248 158 320 113 416 113 c 0
404 -26 m 0
 230 -26 80 59 80 300 c 0
 80 564 348 596 651 613 c 1xcf
 714 616 l 1
 714 781 l 2
 714 914 665 976 524 976 c 0
 387 976 251 938 168 894 c 1
 132 1032 l 1
 212 1078 370 1124 520 1124 c 0
 679 1124 807 1062 837 932 c 1
 910 1063 1047 1124 1192 1124 c 0
 1465 1124 1566 909 1566 684 c 0
 1566 588 1540 542 1379 534 c 2x9f
 882 509 l 1
 898 275 981 119 1194 119 c 0
 1323 119 1447 180 1517 229 c 1
 1569 108 l 1
 1488 38 1359 -25 1183 -25 c 0
 1039 -25 936 24 856 112 c 1
 738 39 560 -26 404 -26 c 0
EndSplineSet
EndChar

StartChar: oslash
Encoding: 182 248 184
Width: 1200
GlyphClass: 2
Flags: MW
HStem: -23 139<577.5 717.5 577.5 759> 980 140<488 627>
VStem: 92 173<468.5 673 468.5 715.5> 935 173<421.5 628.5>
LayerCount: 2
Fore
SplineSet
294 -235 m 1
 223 -197 l 1
 332 48 l 1
 179 143 92 326 92 548 c 0
 92 883 281 1120 605 1120 c 0
 675 1120 739 1108 795 1087 c 1
 902 1327 l 1
 979 1296 l 1
 869 1051 l 1
 1024 957 1108 773 1108 549 c 0
 1108 216 922 -23 596 -23 c 0
 526 -23 461 -11 404 12 c 1
 294 -235 l 1
736 955 m 1
 697 971 653 980 601 980 c 0
 375 980 265 800 265 546 c 0
 265 391 307 263 394 188 c 1
 736 955 l 1
807 913 m 1
 463 144 l 1
 503 126 551 116 604 116 c 0
 831 116 935 295 935 548 c 0
 935 709 895 839 807 913 c 1
EndSplineSet
EndChar

StartChar: Dcroat
Encoding: 65537 272 199
Width: 1522
GlyphClass: 2
Flags: MW
HStem: 0 155<324 621> 697 135<29 147 29 147 324 566> 1341 155<324 519 519 540 324 324>
VStem: 147 177<155 697 155 697 155 697 832 1341> 1223 189<540.5 969.5>
LayerCount: 2
Fore
SplineSet
324 697 m 1
 324 155 l 1
 639 155 l 2
 1005 155 1223 347 1223 734 c 0
 1223 1205 949 1341 540 1341 c 2
 324 1341 l 1
 324 832 l 1
 566 832 l 1
 566 697 l 1
 324 697 l 1
29 697 m 1
 29 832 l 1
 147 832 l 1
 147 1496 l 1
 519 1496 l 2
 1036 1496 1412 1315 1412 738 c 0
 1412 240 1093 0 621 0 c 2
 147 0 l 1
 147 697 l 1
 29 697 l 1
EndSplineSet
EndChar

StartChar: Eth
Encoding: 142 208 204
Width: 1522
GlyphClass: 2
Flags: MW
HStem: 0 155<324 621> 697 135<29 147 29 147 324 566> 1341 155<324 519 519 540 324 324>
VStem: 147 177<155 155 155 697 832 1341> 1223 189<540.5 969.5>
LayerCount: 2
Fore
SplineSet
147 0 m 1
 147 697 l 1
 29 697 l 1
 29 832 l 1
 147 832 l 1
 147 1496 l 1
 519 1496 l 2
 1036 1496 1412 1315 1412 738 c 0
 1412 240 1093 0 621 0 c 2
 147 0 l 1
324 155 m 1
 639 155 l 2
 1005 155 1223 347 1223 734 c 0
 1223 1205 949 1341 540 1341 c 2
 324 1341 l 1
 324 832 l 1
 566 832 l 1
 566 697 l 1
 324 697 l 1
 324 155 l 1
EndSplineSet
EndChar

StartChar: Euro
Encoding: 396 8364 205
Width: 1210
GlyphClass: 2
Flags: MW
HStem: -22 157<682 840.5> 580 103<106 215 123 215 123 227 419 419 419 941> 845 112<124 218 105 234 425 966> 1369 155<704 858 632 872.5>
VStem: 213 189<683 750>
LayerCount: 2
Fore
SplineSet
106 580 m 1
 123 683 l 1
 215 683 l 1
 214 699 213 715 213 731 c 0
 213 769 216 808 218 845 c 1
 105 845 l 1
 124 957 l 1
 234 957 l 1
 285 1288 468 1524 796 1524 c 0
 920 1524 1012 1494 1088 1429 c 1
 1087 1249 l 1
 1020 1322 927 1369 818 1369 c 0
 590 1369 466 1203 425 957 c 1
 983 957 l 1
 966 845 l 1
 407 845 l 1
 402 796 404 684 402 683 c 1
 951 683 l 1
 941 580 l 1
 419 580 l 1
 447 345 564 135 800 135 c 0
 896 135 992 169 1088 244 c 1
 1087 69 l 1
 999 5 900 -22 781 -22 c 0
 433 -22 270 287 227 580 c 1
 106 580 l 1
EndSplineSet
EndChar

StartChar: Hbar
Encoding: 224 294 209
Width: 1463
GlyphClass: 2
Flags: MW
HStem: 0 21G<147 324 147 147 1141 1141 1141 1318> 696 152<324 1141 324 1141> 1146 105<57 147 57 147 324 1141 1318 1408> 1476 20G<147 324 324 324 1141 1318 1318 1318>
VStem: 147 177<0 696 848 1146 1251 1496> 1141 177<0 696 696 696 848 1146 0 1146 1251 1496>
LayerCount: 2
Fore
SplineSet
324 1146 m 1
 324 848 l 1
 1141 848 l 1
 1141 1146 l 1
 324 1146 l 1
1141 696 m 1
 324 696 l 1
 324 0 l 1
 147 0 l 1
 147 1146 l 1
 57 1146 l 1
 57 1251 l 1
 147 1251 l 1
 147 1496 l 1
 324 1496 l 1
 324 1251 l 1
 1141 1251 l 1
 1141 1496 l 1
 1318 1496 l 1
 1318 1251 l 1
 1408 1251 l 1
 1408 1146 l 1
 1318 1146 l 1
 1318 0 l 1
 1141 0 l 1
 1141 696 l 1
EndSplineSet
EndChar

StartChar: IJ
Encoding: 236 306 211
Width: 1090
GlyphClass: 2
Flags: MW
HStem: -214 142<521 556 521 521> 0 21<182 355 182 182> 1459 20<182 355 355 355> 1476 20<766 943 943 943>
VStem: 182 173<0 1479> 766 177<181 241 241 1496>
LayerCount: 2
Fore
SplineSet
766 181 m 2x94
 766 1496 l 1
 943 1496 l 1
 943 241 l 2
 943 -67 908 -214 556 -214 c 2
 521 -214 l 1
 500 -72 l 1
 574 -72 l 2
 756 -72 766 33 766 181 c 2x94
355 0 m 1x68
 182 0 l 1
 182 1479 l 1
 355 1479 l 1
 355 0 l 1x68
EndSplineSet
EndChar

StartChar: Lcaron
Encoding: 65538 317 220
Width: 1021
GlyphClass: 2
Flags: MW
HStem: 0 154<348 993> 1459 20<174 348 348 348> 1505 20G<802 959 959 959>
VStem: 174 174<154 1479 154 1479 154 1479>
LayerCount: 2
Fore
SplineSet
709 1053 m 1
 802 1525 l 1
 959 1525 l 1
 825 1053 l 1
 709 1053 l 1
174 0 m 1
 174 1479 l 1
 348 1479 l 1
 348 154 l 1
 999 154 l 1
 993 0 l 1
 174 0 l 1
EndSplineSet
EndChar

StartChar: Lslash
Encoding: 248 321 223
Width: 960
GlyphClass: 2
Flags: MW
HStem: 0 155<325 970> 1476 20G<148 325 325 325>
VStem: 148 177<155 606 606 606 853 1496>
LayerCount: 2
Fore
SplineSet
0 527 m 1
 0 675 l 1
 148 756 l 1
 148 1496 l 1
 325 1496 l 1
 325 853 l 1
 675 1045 l 1
 675 889 l 1
 325 701 l 1
 325 155 l 1
 982 155 l 1
 970 0 l 1
 148 0 l 1
 148 606 l 1
 0 527 l 1
EndSplineSet
EndChar

StartChar: OE
Encoding: 262 338 227
Width: 1980
GlyphClass: 2
Flags: MW
HStem: -23 152<824 881.5> 0 156<1325 1883> 692 153<1325 1821 1325 1821> 1341 154<1325 1857 1325 1325> 1373 151<653 874 599 885>
VStem: 101 190<595.5 771> 1148 177<0 692 82 692 222 692 845 1259 1259 1259>
LayerCount: 2
Fore
SplineSet
800 1524 m 0xae
 948 1524 1073 1478 1148 1413 c 1
 1148 1495 l 1
 1874 1495 l 1
 1857 1341 l 1
 1325 1341 l 1
 1325 845 l 1
 1821 845 l 1
 1821 692 l 1
 1325 692 l 1
 1325 156 l 1
 1898 156 l 1
 1883 0 l 1
 1148 0 l 1x76
 1148 82 l 1
 1105 36 940 -23 823 -23 c 0
 348 -23 101 299 101 771 c 1
 111 1207 398 1524 800 1524 c 0xae
1148 1259 m 1
 1071 1322 955 1373 815 1373 c 0
 491 1373 299 1121 291 773 c 1
 291 418 433 133 824 129 c 1xae
 953 129 1100 193 1148 222 c 1
 1148 1259 l 1
EndSplineSet
EndChar

StartChar: Omega
Encoding: 65539 937 231
Width: 1626
GlyphClass: 2
Flags: MW
HStem: -22 151<639.5 989 639.5 1039> 1353 152<644 986>
VStem: 112 184<554 931 554 974.5> 1329 185<554 930.5>
LayerCount: 2
Fore
SplineSet
296 739 m 0
 296 369 465 129 814 129 c 0
 1164 129 1329 369 1329 739 c 0
 1329 1122 1157 1353 815 1353 c 0
 473 1353 296 1123 296 739 c 0
1514 739 m 0
 1514 288 1264 -22 814 -22 c 0
 358 -22 112 282 112 740 c 0
 112 1209 367 1505 815 1505 c 0
 1256 1505 1514 1206 1514 739 c 0
EndSplineSet
EndChar

StartChar: Thorn
Encoding: 156 222 241
Width: 1291
GlyphClass: 2
Flags: MW
HStem: 0 21G<147 147 147 324> 349 144<324 708> 1068 149<324 648 648 666 324 648> 1476 20G<147 324 324 324>
VStem: 147 177<0 349 0 493 493 1068 1217 1496> 1040 169<698.5 880.5>
LayerCount: 2
Fore
SplineSet
324 493 m 1
 708 493 l 2
 956 493 1040 615 1040 782 c 0
 1040 979 941 1068 666 1068 c 2
 324 1068 l 1
 324 493 l 1
147 0 m 1
 147 1496 l 1
 324 1496 l 1
 324 1217 l 1
 648 1217 l 2
 1008 1217 1209 1107 1209 791 c 0
 1209 525 1066 342 719 342 c 0
 711 342 324 349 324 349 c 1
 324 0 l 1
 147 0 l 1
EndSplineSet
EndChar

StartChar: acute
Encoding: 115 180 252
Width: 639
GlyphClass: 2
Flags: MW
HStem: 1250 388<128 567 128 567>
VStem: 128 439<1250 1638>
LayerCount: 2
Fore
SplineSet
567 1638 m 1
 242 1250 l 1
 128 1250 l 1
 314 1638 l 1
 567 1638 l 1
EndSplineSet
EndChar

StartChar: approxequal
Encoding: 405 8776 255
Width: 1314
GlyphClass: 2
Flags: MW
HStem: 282 129<867.5 942 867.5 981> 459 130<376.5 457> 684 126<867.5 940 867.5 976.5> 860 128<373.5 454>
VStem: 138 101<280 312> 1080 98<558 589>
LayerCount: 2
Fore
SplineSet
239 280 m 1
 138 312 l 1
 171 484 269 589 428 589 c 0
 520 589 608 544 687 500 c 0
 766 456 837 411 898 411 c 0
 986 411 1040 476 1080 589 c 1
 1178 558 l 1
 1146 393 1067 282 895 282 c 0
 811 282 728 317 615 385 c 1
 547 428 487 459 427 459 c 0
 326 459 271 388 239 280 c 1
239 684 m 1
 136 712 l 1
 168 882 269 988 427 988 c 0
 515 988 594 950 689 893 c 0
 781 837 839 810 896 810 c 0
 984 810 1038 873 1077 988 c 1
 1176 959 l 1
 1144 793 1061 684 892 684 c 0
 805 684 724 718 613 787 c 0
 545 830 484 860 424 860 c 0
 323 860 268 792 239 684 c 1
EndSplineSet
EndChar

StartChar: breve
Encoding: 348 728 256
Width: 754
GlyphClass: 2
Flags: MW
HStem: 1299 117<340.5 413.5 340.5 439>
VStem: 128 116<1509 1557 1509 1557> 513 117<1509 1557>
LayerCount: 2
Fore
SplineSet
377 1299 m 0
 254 1299 128 1385 128 1557 c 1
 244 1557 l 1
 244 1461 304 1416 377 1416 c 0
 450 1416 513 1461 513 1557 c 1
 630 1557 l 1
 630 1385 501 1299 377 1299 c 0
EndSplineSet
EndChar

StartChar: brokenbar
Encoding: 101 166 257
Width: 788
GlyphClass: 2
Flags: MW
VStem: 322 146<-399 310 -399 310 872 1579>
LayerCount: 2
Fore
SplineSet
322 310 m 1
 468 310 l 1
 468 -399 l 1
 322 -399 l 1
 322 310 l 1
322 1579 m 1
 468 1579 l 1
 468 872 l 1
 322 872 l 1
 322 1579 l 1
EndSplineSet
EndChar

StartChar: bullet
Encoding: 391 8226 258
Width: 867
GlyphClass: 2
Flags: MW
HStem: 415 671<357 512.5>
VStem: 137 594<661 839>
LayerCount: 2
Fore
SplineSet
731 753 m 0
 731 569 593 415 432 415 c 0
 266 415 137 567 137 747 c 0
 137 931 278 1086 436 1086 c 0
 597 1086 731 934 731 753 c 0
EndSplineSet
EndChar

StartChar: caron
Encoding: 347 711 260
Width: 800
GlyphClass: 2
Flags: MW
HStem: 1251 388<108 508 108 295>
VStem: 108 587<1639 1639>
LayerCount: 2
Fore
SplineSet
108 1639 m 1
 239 1639 l 1
 400 1327 l 1
 561 1639 l 1
 695 1639 l 1
 508 1251 l 1
 295 1251 l 1
 108 1639 l 1
EndSplineSet
EndChar

StartChar: cedilla
Encoding: 118 184 263
Width: 596
GlyphClass: 2
Flags: MW
HStem: -410 426<226 268 114 312>
VStem: 114 198
LayerCount: 2
Fore
SplineSet
268 -410 m 1
 114 -410 l 1
 226 16 l 1
 312 16 l 1
 268 -410 l 1
EndSplineSet
EndChar

StartChar: cent
Encoding: 97 162 264
Width: 1102
GlyphClass: 2
Flags: MW
HStem: 1 21G<547 642 547 547> 170 140<547 547 547 642> 1102 21G<854 854> 1174 140<547 547> 1476 20G<547 642 642 642>
VStem: 70 171<623.5 742> 547 95<1 170 1 170 310 1174 1174 1174 1314 1496>
LayerCount: 2
Fore
SplineSet
547 1496 m 1
 642 1496 l 1
 642 1314 l 1
 750 1307 841 1273 896 1221 c 1
 854 1102 l 1
 786 1148 712 1170 642 1176 c 1
 642 307 l 1
 727 315 801 350 855 388 c 1
 897 268 l 1
 834 210 738 177 642 170 c 1
 642 1 l 1
 547 1 l 1
 547 170 l 1
 239 196 70 452 70 742 c 1
 72 1029 250 1288 547 1314 c 1
 547 1496 l 1
547 310 m 1
 547 1174 l 1
 370 1147 241 970 241 737 c 0
 241 510 361 340 547 310 c 1
EndSplineSet
EndChar

StartChar: circumflex
Encoding: 346 710 265
Width: 800
GlyphClass: 2
Flags: MW
HStem: 1251 388<108 508 108 508 295 561 295 695>
VStem: 108 587<1251 1251>
LayerCount: 2
Fore
SplineSet
108 1251 m 1
 295 1639 l 1
 508 1639 l 1
 695 1251 l 1
 561 1251 l 1
 400 1523 l 1
 239 1251 l 1
 108 1251 l 1
EndSplineSet
EndChar

StartChar: uni0326
Encoding: 357 806 266
Width: 555
GlyphClass: 2
Flags: MW
HStem: -672 498<144 404 238 261>
VStem: 144 260
LayerCount: 2
Fore
SplineSet
144 -672 m 1
 238 -174 l 1
 404 -174 l 1
 261 -672 l 1
 144 -672 l 1
EndSplineSet
EndChar

StartChar: currency
Encoding: 99 164 267
Width: 1151
GlyphClass: 2
Flags: MW
HStem: 315 108<525.5 626> 1042 108<526.5 626 526.5 661.5>
VStem: 158 109<686 777.5> 886 108<685 776.5 685 817>
LayerCount: 2
Fore
SplineSet
267 732 m 0
 267 561 405 423 576 423 c 0
 748 423 886 562 886 732 c 0
 886 902 747 1042 576 1042 c 0
 405 1042 267 902 267 732 c 0
158 732 m 0
 158 823 188 908 241 981 c 1
 55 1160 l 1
 129 1232 l 1
 313 1057 l 1
 386 1117 477 1150 576 1150 c 0
 676 1150 765 1116 838 1056 c 1
 1025 1232 l 1
 1095 1158 l 1
 911 981 l 1
 964 906 994 821 994 732 c 0
 994 638 965 553 912 482 c 1
 1094 306 l 1
 1025 232 l 1
 838 408 l 1
 765 349 676 315 576 315 c 0
 475 315 385 348 313 408 c 1
 129 233 l 1
 56 305 l 1
 241 482 l 1
 188 554 158 640 158 732 c 0
EndSplineSet
EndChar

StartChar: dagger
Encoding: 389 8224 268
Width: 876
GlyphClass: 2
Flags: MW
HStem: 1047 102<71 369 71 369 499 806>
VStem: 369 130<121 1047 121 1047 1149 1561>
LayerCount: 2
Fore
SplineSet
369 121 m 1
 369 1047 l 1
 71 1047 l 1
 71 1149 l 1
 369 1149 l 1
 369 1561 l 1
 499 1561 l 1
 499 1149 l 1
 806 1149 l 1
 806 1047 l 1
 499 1047 l 1
 499 121 l 1
 369 121 l 1
EndSplineSet
EndChar

StartChar: daggerdbl
Encoding: 390 8225 269
Width: 950
GlyphClass: 2
Flags: MW
HStem: 467 137<107 413 107 413 107 543 543 843> 1059 140<112 413 112 413 112 543 543 850> 1530 20G<413 543 543 543>
VStem: 413 130<110 467 110 467 604 1059 1199 1550>
LayerCount: 2
Fore
SplineSet
413 110 m 1
 413 467 l 1
 107 467 l 1
 107 604 l 1
 413 604 l 1
 413 1059 l 1
 112 1059 l 1
 112 1199 l 1
 413 1199 l 1
 413 1550 l 1
 543 1550 l 1
 543 1199 l 1
 850 1199 l 1
 850 1059 l 1
 543 1059 l 1
 543 604 l 1
 843 604 l 1
 843 467 l 1
 543 467 l 1
 543 110 l 1
 413 110 l 1
EndSplineSet
EndChar

StartChar: dcaron
Encoding: 65540 271 270
Width: 1211
GlyphClass: 2
Flags: MW
HStem: -22 143<464.5 630.5> 0 21<922 1064 922 922> 977 143<464 623.5 411 687.5> 1513 20G<1064 1064 1310 1467 1467 1467>
VStem: 92 173<424.5 668 424.5 720.5> 899 165<1040 1523 1523 1523> 922 142<0 1533>
LayerCount: 2
Fore
SplineSet
571 121 m 0xb8
 797 121 897 275 897 530 c 0
 897 817 806 977 569 977 c 0
 359 977 265 787 265 549 c 0
 265 300 358 121 571 121 c 0xb8
900 159 m 1
 830 51 706 -22 555 -22 c 0
 264 -22 92 200 92 553 c 0
 92 888 270 1120 552 1120 c 0
 695 1120 837 1053 902 945 c 1
 899 1040 l 1
 899 1523 l 1xbc
 1064 1533 l 1
 1064 0 l 1
 922 0 l 1x7a
 900 159 l 1
1217 1061 m 1x38
 1310 1533 l 1
 1467 1533 l 1
 1333 1061 l 1
 1217 1061 l 1x38
EndSplineSet
EndChar

StartChar: dcroat
Encoding: 205 273 271
Width: 1168
GlyphClass: 2
Flags: MW
HStem: -24 148<438.5 617> 0 21G<900 1049 900 900> 977 148<438 607.5 396 667> 1199 142<658 881 658 881 1049 1166>
VStem: 70 173<447 655.5 447 716.5> 881 168<937 1199 0 1199 1341 1490 1490 1490> 900 149<0 1199>
LayerCount: 2
Fore
SplineSet
541 -24 m 0xba
 245 -24 70 218 70 561 c 0
 70 872 257 1125 535 1125 c 0
 680 1125 824 1053 881 937 c 1
 881 1199 l 1
 658 1199 l 1
 658 1341 l 1
 881 1341 l 1
 881 1490 l 1xbc
 1049 1510 l 1xba
 1049 1341 l 1
 1166 1341 l 1
 1166 1199 l 1
 1049 1199 l 1xbc
 1049 0 l 1
 900 0 l 1x7a
 879 172 l 1
 816 60 693 -24 541 -24 c 0xba
552 124 m 0
 777 124 882 315 882 551 c 0
 882 786 784 977 550 977 c 0
 326 977 243 755 243 556 c 0
 243 338 325 124 552 124 c 0
EndSplineSet
EndChar

StartChar: degree
Encoding: 111 176 272
Width: 846
GlyphClass: 2
Flags: MW
HStem: 889 121<372.5 475.5 372.5 511> 1399 120<373 475.5>
VStem: 112 123<1150.5 1259.5 1150.5 1291.5> 613 122<1151 1259.5>
LayerCount: 2
Fore
SplineSet
235 1205 m 0
 235 1096 321 1010 424 1010 c 0
 527 1010 613 1097 613 1205 c 0
 613 1314 527 1399 424 1399 c 0
 322 1399 235 1314 235 1205 c 0
112 1205 m 0
 112 1378 253 1519 423 1519 c 0
 594 1519 735 1378 735 1205 c 0
 735 1037 599 889 423 889 c 0
 253 889 112 1031 112 1205 c 0
EndSplineSet
EndChar

StartChar: dieresis
Encoding: 103 168 273
Width: 770
GlyphClass: 2
Flags: MW
HStem: 1254 212<118 272 118 272 508 663>
VStem: 118 154<1254 1466> 508 155<1254 1466>
LayerCount: 2
Fore
SplineSet
663 1254 m 1
 508 1254 l 1
 508 1466 l 1
 663 1466 l 1
 663 1254 l 1
272 1254 m 1
 118 1254 l 1
 118 1466 l 1
 272 1466 l 1
 272 1254 l 1
EndSplineSet
EndChar

StartChar: divide
Encoding: 181 247 274
Width: 1211
GlyphClass: 2
Flags: MW
HStem: 22 227<491 682 491 682> 523 149<97 1098 97 1098> 939 227<491 716 491 716>
VStem: 491 191<22 249 22 249> 491 225<939 1166 939 1166>
LayerCount: 2
Fore
SplineSet
1098 523 m 1xe0
 97 523 l 1
 97 672 l 1
 1098 672 l 1
 1098 523 l 1xe0
716 1166 m 1xe8
 716 939 l 1
 491 939 l 1
 491 1166 l 1
 716 1166 l 1xe8
682 249 m 1xf0
 682 22 l 1
 491 22 l 1
 491 249 l 1
 682 249 l 1xf0
EndSplineSet
EndChar

StartChar: dotlessi
Encoding: 235 305 276
Width: 430
GlyphClass: 2
Flags: MW
HStem: 0 21G<135 304 135 135> 1078 20G<135 304 304 304>
VStem: 135 169<0 1098 0 1098>
LayerCount: 2
Fore
SplineSet
304 1098 m 1
 304 0 l 1
 135 0 l 1
 135 1098 l 1
 304 1098 l 1
EndSplineSet
EndChar

StartChar: ellipsis
Encoding: 65541 8230 279
Width: 1482
GlyphClass: 2
Flags: MW
HStem: -12 264<217 305.5 711 799.5 1205 1293.5>
VStem: 128 266<87 153> 622 266<87 153> 1116 266<87 153>
CounterMasks: 1 70
LayerCount: 2
Fore
SplineSet
261 -12 m 0
 173 -12 128 54 128 120 c 0
 128 186 172 252 261 252 c 0
 350 252 394 186 394 120 c 0
 394 54 350 -12 261 -12 c 0
755 -12 m 0
 667 -12 622 54 622 120 c 0
 622 186 666 252 755 252 c 0
 844 252 888 186 888 120 c 0
 888 54 844 -12 755 -12 c 0
1249 -12 m 0
 1161 -12 1116 54 1116 120 c 0
 1116 186 1160 252 1249 252 c 0
 1338 252 1382 186 1382 120 c 0
 1382 54 1338 -12 1249 -12 c 0
EndSplineSet
EndChar

StartChar: emdash
Encoding: 382 8212 281
Width: 2427
GlyphClass: 2
Flags: MW
HStem: 527 148<139 2296 139 2296>
LayerCount: 2
Fore
SplineSet
2296 675 m 1
 2296 527 l 1
 139 527 l 1
 139 675 l 1
 2296 675 l 1
EndSplineSet
EndChar

StartChar: endash
Encoding: 381 8211 282
Width: 1317
GlyphClass: 2
Flags: MW
HStem: 527 148<139 1186 139 1186>
LayerCount: 2
Fore
SplineSet
1186 675 m 1
 1186 527 l 1
 139 527 l 1
 139 675 l 1
 1186 675 l 1
EndSplineSet
EndChar

StartChar: eth
Encoding: 174 240 284
Width: 1204
GlyphClass: 2
Flags: MW
HStem: -25 139<495.5 717 495.5 773> 833 139<497 634.5 424 714> 1522 20G<868 868>
VStem: 87 182<389.5 580 389.5 631.5> 945 172<371.5 562 345.5 562.5>
LayerCount: 2
Fore
SplineSet
603 833 m 0
 391 833 269 675 269 485 c 0
 269 294 382 114 609 114 c 0
 825 114 945 271 945 472 c 0
 945 653 825 833 603 833 c 0
569 972 m 0
 700 972 787 919 844 877 c 1
 798 964 700 1096 541 1257 c 1
 269 1145 l 1
 226 1277 l 1
 446 1364 l 1
 210 1588 l 1
 433 1588 l 1
 579 1429 l 1
 868 1542 l 1
 914 1413 l 1
 672 1320 l 1
 828 1150 941 1013 1015 884 c 1
 1084 754 1117 632 1117 492 c 0
 1117 199 943 -25 603 -25 c 0
 271 -25 87 212 87 486 c 0
 87 777 279 972 569 972 c 0
EndSplineSet
EndChar

StartChar: florin
Encoding: 302 402 286
Width: 978
GlyphClass: 2
Flags: MW
HStem: -358 148<106.5 150.5 98.5 233> 895 120<257 438 265 415 615 793> 1393 154<755 802.5 673.5 821>
LayerCount: 2
Fore
SplineSet
257 895 m 1
 265 1015 l 1
 438 1015 l 1
 460 1178 l 1
 487 1370 564 1547 783 1547 c 0
 822 1547 868 1537 911 1525 c 1
 903 1369 l 1
 867 1385 835 1393 807 1393 c 0
 703 1393 670 1334 654 1227 c 1
 615 1015 l 1
 801 1015 l 1
 793 895 l 1
 596 895 l 1
 460 130 l 1
 412 -127 347 -358 119 -358 c 0
 94 -358 64 -350 28 -339 c 1
 39 -192 l 1
 66 -203 89 -210 108 -210 c 0
 193 -210 231 -110 255 6 c 1
 319 281 362 613 415 895 c 1
 257 895 l 1
EndSplineSet
EndChar

StartChar: fraction
Encoding: 394 8260 287
Width: 1135
GlyphClass: 2
Flags: MW
HStem: 0 21G<60 191 60 60> 1527 20G<936 1066 1066 1066>
LayerCount: 2
Fore
SplineSet
936 1547 m 1
 1066 1547 l 1
 191 0 l 1
 60 0 l 1
 936 1547 l 1
EndSplineSet
EndChar

StartChar: gcommaaccent
Encoding: 221 291 290
Width: 1187
GlyphClass: 2
Flags: MW
HStem: -502 151<312 312 312 497> 1 142<455 631> 979 141<451 629 388.5 684> 1077 20<889 1052 1052 1052>
VStem: 70 172<460 649 460 701> 889 163<516 597 597 701 951 1097>
LayerCount: 2
Fore
SplineSet
569 143 m 0xec
 805 143 889 319 889 516 c 2
 889 597 l 2
 889 805 798 979 570 979 c 0
 332 979 242 744 242 554 c 0
 242 366 341 143 569 143 c 0xec
312 -502 m 1
 297 -351 l 1
 501 -351 l 2
 846 -351 884 -193 884 83 c 2
 884 180 l 1
 812 76 718 1 544 1 c 0
 219 1 70 294 70 545 c 0
 70 857 221 1120 556 1120 c 0xec
 702 1120 805 1064 889 951 c 1
 889 1097 l 1
 1052 1097 l 1xdc
 1052 79 l 2
 1052 -206 1010 -502 497 -502 c 2
 312 -502 l 1
793 1749 m 1xcc
 683 1250 l 1
 488 1250 l 1
 653 1749 l 1
 793 1749 l 1xcc
EndSplineSet
EndChar

StartChar: greaterequal
Encoding: 408 8805 291
Width: 1183
GlyphClass: 2
Flags: MW
HStem: 8 133<120 1080 120 1080>
LayerCount: 2
Fore
SplineSet
1080 141 m 1
 1080 8 l 1
 120 8 l 1
 120 141 l 1
 1080 141 l 1
150 1164 m 1
 150 1314 l 1
 1063 806 l 1
 1063 719 l 1
 146 234 l 1
 146 385 l 1
 908 762 l 1
 150 1164 l 1
EndSplineSet
EndChar

StartChar: guillemotleft
Encoding: 106 171 292
Width: 1000
GlyphClass: 2
Flags: W
LayerCount: 2
Fore
SplineSet
390 149 m 1
 120 520 l 1
 100 567 l 1
 393 970 l 1
 536 935 l 1
 262 561 l 1
 531 185 l 1
 390 149 l 1
771 149 m 1
 678 273 469 567 469 567 c 1
 773 970 l 1
 901 935 l 1
 642 561 l 1
 898 185 l 1
 771 149 l 1
EndSplineSet
EndChar

StartChar: guillemotright
Encoding: 121 187 293
Width: 1012
GlyphClass: 2
Flags: W
LayerCount: 2
Fore
SplineSet
534 554 m 1
 230 149 l 1
 102 185 l 1
 361 562 l 1
 104 935 l 1
 231 970 l 1
 534 554 l 1
915 554 m 1
 622 149 l 1
 483 185 l 1
 753 562 l 1
 488 935 l 1
 625 970 l 1
 915 554 l 1
EndSplineSet
EndChar

StartChar: guilsinglleft
Encoding: 392 8249 294
Width: 620
GlyphClass: 2
Flags: MW
VStem: 120 381
LayerCount: 2
Fore
SplineSet
361 982 m 1
 501 982 l 1
 269 583 l 1
 495 182 l 1
 356 182 l 1
 120 583 l 1
 361 982 l 1
EndSplineSet
EndChar

StartChar: guilsinglright
Encoding: 393 8250 295
Width: 617
GlyphClass: 2
Flags: MW
VStem: 124 381
LayerCount: 2
Fore
SplineSet
505 585 m 1
 264 182 l 1
 124 182 l 1
 355 585 l 1
 130 982 l 1
 269 982 l 1
 505 585 l 1
EndSplineSet
EndChar

StartChar: hbar
Encoding: 225 295 296
Width: 1112
GlyphClass: 2
Flags: MW
HStem: 0 21G<114 282 114 114 839 839 839 1007> 980 144<590.5 712.5> 1270 116<21 114 21 114 282 558>
VStem: 114 168<0 748 949 1270 1386 1490 1490 1490> 839 168<0 617 617 664 0 741>
LayerCount: 2
Fore
SplineSet
282 0 m 1
 114 0 l 1
 114 1270 l 1
 21 1270 l 1
 21 1386 l 1
 114 1386 l 1
 114 1490 l 1
 282 1510 l 1
 282 1386 l 1
 558 1386 l 1
 558 1270 l 1
 282 1270 l 1
 282 949 l 1
 375 1061 507 1124 674 1124 c 0
 903 1124 1007 952 1007 664 c 2
 1007 0 l 1
 839 0 l 1
 839 617 l 2
 839 865 806 980 619 980 c 0
 448 980 309 852 282 748 c 1
 282 0 l 1
EndSplineSet
EndChar

StartChar: hungarumlaut
Encoding: 353 733 298
Width: 817
GlyphClass: 2
Flags: MW
HStem: 1259 335<128 479 128 479 361 361 361 463>
VStem: 128 585<1259 1594>
LayerCount: 2
Fore
SplineSet
479 1594 m 1
 227 1259 l 1
 128 1259 l 1
 326 1594 l 1
 479 1594 l 1
713 1594 m 1
 463 1259 l 1
 361 1259 l 1
 563 1594 l 1
 713 1594 l 1
EndSplineSet
EndChar

StartChar: ij
Encoding: 237 307 300
Width: 911
GlyphClass: 2
Flags: MW
HStem: -502 151<411 441 441 463 411 411> 0 21<159 327 159 159> 1077 20<159 327 327 327 628 796 796 796> 1298 198<159 327 159 327 628 796>
VStem: 159 168<0 1097 0 1097 1298 1496> 628 168<-121 1097 1298 1496>
LayerCount: 2
Fore
SplineSet
796 1097 m 1
 796 -139 l 2
 796 -407 736 -502 463 -502 c 2
 411 -502 l 1
 389 -351 l 1
 441 -351 l 2
 623 -351 628 -286 628 -121 c 2
 628 1097 l 1
 796 1097 l 1
796 1496 m 1
 796 1298 l 1
 628 1298 l 1
 628 1496 l 1
 796 1496 l 1
327 1097 m 1
 327 0 l 1
 159 0 l 1
 159 1097 l 1
 327 1097 l 1
327 1496 m 1
 327 1298 l 1
 159 1298 l 1
 159 1496 l 1
 327 1496 l 1
EndSplineSet
EndChar

StartChar: infinity
Encoding: 403 8734 302
Width: 1811
GlyphClass: 2
Flags: MW
HStem: 254 127<421 561.5 421 576.5 1262.5 1404> 893 124<413 559 1251.5 1389>
VStem: 135 113<573 706.5 573 758.5> 1555 123<586 727>
LayerCount: 2
Fore
SplineSet
1678 642 m 0
 1678 413 1522 254 1323 254 c 0
 1171 254 1045 344 909 525 c 1
 789 367 660 254 493 254 c 0
 266 254 135 440 135 659 c 0
 135 858 291 1017 488 1017 c 0
 659 1017 786 909 909 745 c 1
 1024 903 1151 1017 1326 1017 c 0
 1554 1017 1678 860 1678 642 c 0
248 638 m 0
 248 508 347 381 495 381 c 0
 628 381 744 497 838 636 c 1
 745 783 631 893 487 893 c 0
 339 893 248 775 248 638 c 0
1555 665 m 0
 1555 789 1457 893 1321 893 c 0
 1182 893 1071 770 982 638 c 1
 1105 470 1199 381 1326 381 c 0
 1482 381 1555 507 1555 665 c 0
EndSplineSet
EndChar

StartChar: integral
Encoding: 404 8747 303
Width: 698
GlyphClass: 2
Flags: MW
HStem: -429 145<136.5 193 115.5 261.5> 1610 146<506 565.5 440.5 583.5>
VStem: 277 144<-50 -25 -25 1351 1351 1379>
LayerCount: 2
Fore
SplineSet
277 -50 m 2
 277 1351 l 2
 277 1583 341 1756 540 1756 c 0
 591 1756 620 1745 661 1733 c 1
 662 1594 l 1
 639 1605 601 1610 566 1610 c 0
 446 1610 421 1531 421 1379 c 2
 421 -25 l 2
 421 -257 361 -429 162 -429 c 0
 111 -429 82 -421 41 -409 c 1
 40 -270 l 1
 63 -281 98 -284 133 -284 c 0
 253 -284 277 -202 277 -50 c 2
EndSplineSet
EndChar

StartChar: kgreenlandic
Encoding: 242 312 308
Width: 1104
GlyphClass: 2
Flags: MW
HStem: 0 21G<147 293 147 147 823 1014 823 823> 1085 20G<147 293 293 293 776 981 981 981>
VStem: 147 146<0 506 0 600 600 1105>
LayerCount: 2
Fore
SplineSet
823 0 m 1
 320 480 l 1
 293 506 l 1
 293 0 l 1
 147 0 l 1
 147 1105 l 1
 293 1105 l 1
 293 600 l 1
 776 1105 l 1
 981 1105 l 1
 458 551 l 1
 655 368 847 183 1014 0 c 1
 823 0 l 1
EndSplineSet
EndChar

StartChar: lcaron
Encoding: 65542 318 310
Width: 569
GlyphClass: 2
Flags: MW
HStem: -20 138<399.5 452> 1513 20<311 311>
VStem: 145 166<365 431 431 1523 1523 1523>
LayerCount: 2
Fore
SplineSet
479 1038 m 1
 572 1510 l 1
 729 1510 l 1
 595 1038 l 1
 479 1038 l 1
438 -20 m 0
 226 -20 145 79 145 365 c 2
 145 1523 l 1
 311 1533 l 1
 311 431 l 2
 311 186 323 118 476 118 c 0
 525 118 555 124 602 130 c 1
 611 -3 l 1
 538 -15 466 -20 438 -20 c 0
EndSplineSet
EndChar

StartChar: ldot
Encoding: 65543 320 312
Width: 569
GlyphClass: 2
Flags: MW
HStem: -20 138<399.5 452> 561 198<719 887 719 887> 1513 20<311 311>
VStem: 145 166<365 431 431 1523 1523 1523> 719 168<561 759 561 759>
LayerCount: 2
Fore
SplineSet
887 759 m 1
 887 561 l 1
 719 561 l 1
 719 759 l 1
 887 759 l 1
438 -20 m 0
 226 -20 145 79 145 365 c 2
 145 1523 l 1
 311 1533 l 1
 311 431 l 2
 311 186 323 118 476 118 c 0
 525 118 555 124 602 130 c 1
 611 -3 l 1
 538 -15 466 -20 438 -20 c 0
EndSplineSet
EndChar

StartChar: lessequal
Encoding: 407 8804 313
Width: 1183
GlyphClass: 2
Flags: MW
HStem: 8 133<101 1066 101 1066>
LayerCount: 2
Fore
SplineSet
1041 383 m 1
 1041 232 l 1
 131 716 l 1
 131 806 l 1
 1041 1312 l 1
 1041 1162 l 1
 285 766 l 1
 1041 383 l 1
1066 141 m 1
 1066 8 l 1
 101 8 l 1
 101 141 l 1
 1066 141 l 1
EndSplineSet
EndChar

StartChar: logicalnot
Encoding: 107 172 314
Width: 1225
GlyphClass: 2
Flags: MW
HStem: 681 144<109 965 109 1100>
VStem: 965 135<260 681 681 681>
LayerCount: 2
Fore
SplineSet
1100 825 m 1
 1100 260 l 1
 965 260 l 1
 965 681 l 1
 109 681 l 1
 109 825 l 1
 1100 825 l 1
EndSplineSet
EndChar

StartChar: lozenge
Encoding: 409 9674 315
Width: 1142
GlyphClass: 2
Flags: W
LayerCount: 2
Fore
SplineSet
565 106 m 1
 684 326 804 546 923 766 c 1
 808 985 690 1203 577 1424 c 1
 457 1206 338 987 219 768 c 1
 335 548 446 323 565 106 c 1
630 1583 m 1
 1055 768 l 1
 621 -48 l 1
 512 -48 l 1
 87 766 l 1
 519 1583 l 1
 630 1583 l 1
EndSplineSet
EndChar

StartChar: lslash
Encoding: 249 322 316
Width: 589
GlyphClass: 2
Flags: MW
HStem: -21 139<386.5 442.5>
VStem: 143 168<468 573 573 573 848 1490 1490 1490>
LayerCount: 2
Fore
SplineSet
487 985 m 1
 487 839 l 1
 311 703 l 1
 311 431 l 2
 311 192 315 118 458 118 c 0
 485 118 547 124 596 128 c 1
 611 -8 l 1
 561 -13 452 -21 433 -21 c 0
 166 -21 143 106 143 468 c 2
 143 573 l 1
 31 486 l 1
 31 631 l 1
 143 718 l 1
 143 1490 l 1
 311 1510 l 1
 311 848 l 1
 487 985 l 1
EndSplineSet
EndChar

StartChar: macron
Encoding: 110 175 317
Width: 1062
GlyphClass: 2
Flags: MW
HStem: 1503 122<176 886 176 886>
LayerCount: 2
Fore
SplineSet
886 1625 m 1
 886 1503 l 1
 176 1503 l 1
 176 1625 l 1
 886 1625 l 1
EndSplineSet
EndChar

StartChar: periodcentered
Encoding: 117 183 318
Width: 468
GlyphClass: 2
Flags: MW
HStem: 561 198<150 318 150 318>
VStem: 150 168<561 759 561 759>
LayerCount: 2
Fore
SplineSet
318 759 m 1
 318 561 l 1
 150 561 l 1
 150 759 l 1
 318 759 l 1
EndSplineSet
EndChar

StartChar: multiply
Encoding: 149 215 319
Width: 993
GlyphClass: 2
Flags: W
LayerCount: 2
Fore
SplineSet
876 278 m 1
 768 181 l 1
 496 494 l 1
 224 181 l 1
 116 278 l 1
 401 604 l 1
 116 932 l 1
 222 1027 l 1
 496 713 l 1
 770 1027 l 1
 876 932 l 1
 591 604 l 1
 876 278 l 1
EndSplineSet
EndChar

StartChar: notequal
Encoding: 406 8800 323
Width: 1191
GlyphClass: 2
Flags: MW
HStem: 352 127<121 382 121 121 581 1076 114 521> 783 132<121 598 121 121 796 1074 112 737>
LayerCount: 2
Fore
SplineSet
798 1207 m 1
 913 1191 l 1
 796 915 l 1
 1074 915 l 1
 1083 783 l 1
 737 783 l 1
 581 479 l 1
 1076 479 l 1
 1083 352 l 1
 521 352 l 1
 376 48 l 1
 263 68 l 1
 382 352 l 1
 121 352 l 1
 114 479 l 1
 446 479 l 1
 598 783 l 1
 121 783 l 1
 112 915 l 1
 657 915 l 1
 798 1207 l 1
EndSplineSet
EndChar

StartChar: oe
Encoding: 263 339 325
Width: 1916
GlyphClass: 2
Flags: MW
HStem: -25 138<470 684.5> 519 115<1099 1672 1099 1832 1093 1672> 986 138<469 690.5 424 710.5>
VStem: 82 173<433.5 656 433.5 704> 921 172<435 519 395.5 663.5> 1672 162<634 647 647 647>
LayerCount: 2
Fore
SplineSet
1099 634 m 1
 1672 634 l 1
 1672 647 l 1
 1668 872 1564 988 1404 988 c 0
 1238 988 1118 850 1099 634 c 1
590 113 m 0
 827 113 921 323 921 547 c 0
 921 780 834 986 587 986 c 0
 351 986 255 768 255 544 c 0
 255 323 350 113 590 113 c 0
587 -25 m 0
 255 -25 82 232 82 547 c 0
 82 861 258 1124 590 1124 c 0
 791 1124 928 1031 1005 889 c 1
 1087 1031 1241 1119 1414 1124 c 1
 1687 1124 1834 918 1834 594 c 0
 1834 578 1832 538 1832 519 c 1
 1093 519 l 1
 1093 272 1237 119 1430 119 c 0
 1586 119 1688 176 1766 229 c 1
 1818 107 l 1
 1728 30 1601 -25 1425 -25 c 0
 1231 -25 1083 61 1000 211 c 1
 920 70 782 -25 587 -25 c 0
EndSplineSet
EndChar

StartChar: ogonek
Encoding: 351 731 326
Width: 590
GlyphClass: 2
Flags: MW
HStem: -419 116<310.5 338>
VStem: 118 125<-240.5 -188.5>
LayerCount: 2
Fore
SplineSet
331 -303 m 0
 385 -303 417 -291 468 -270 c 1
 468 -387 l 1
 430 -403 365 -419 311 -419 c 0
 203 -419 118 -357 118 -243 c 0
 118 -134 213 -51 309 5 c 1
 423 5 l 1
 319 -72 243 -146 243 -214 c 0
 243 -267 290 -303 331 -303 c 0
EndSplineSet
EndChar

StartChar: onehalf
Encoding: 123 189 329
Width: 1591
GlyphClass: 2
Flags: MW
HStem: -30 99<1093 1487 1093 1487> 0 21G<245 245 245 379> 650 96<135 253 135 253 368 492> 760 108<1197.5 1269> 1527 20G<1165 1300 1300 1300>
VStem: 253 115<746 1409 1409 1409> 1370 129<554.5 662>
LayerCount: 2
Fore
SplineSet
245 0 m 1x7e
 1165 1547 l 1
 1300 1547 l 1
 379 0 l 1
 245 0 l 1x7e
934 -30 m 1xbe
 934 63 l 1
 1180 310 1370 492 1370 617 c 0
 1370 707 1305 760 1233 760 c 0
 1162 760 1079 722 1020 634 c 1
 943 699 l 1
 990 808 1117 868 1237 868 c 0
 1372 868 1499 793 1499 629 c 0
 1499 435 1311 268 1093 69 c 1
 1487 69 l 1
 1487 -30 l 1
 934 -30 l 1xbe
135 650 m 1
 135 746 l 1
 253 746 l 1
 253 1409 l 1
 215 1384 166 1357 122 1334 c 1
 122 1436 l 1
 183 1467 231 1499 271 1539 c 1
 368 1538 l 1
 368 746 l 1
 492 746 l 1
 492 650 l 1
 135 650 l 1
EndSplineSet
EndChar

StartChar: onequarter
Encoding: 122 188 330
Width: 1609
GlyphClass: 2
Flags: MW
HStem: 0 21G<245 379 245 245> 240 118<1066 1312 1066 1313 1066 1420 1422 1516> 650 96<135 253 368 492 135 253> 1519 21G
VStem: 253 115<746 1409 1409 1409> 1313 107<40 240>
LayerCount: 2
Fore
SplineSet
122 1334 m 1
 122 1436 l 1
 183 1467 231 1499 271 1539 c 1
 368 1538 l 1
 368 746 l 1
 492 746 l 1
 492 650 l 1
 135 650 l 1
 135 746 l 1
 253 746 l 1
 253 1409 l 1
 215 1384 166 1357 122 1334 c 1
1420 40 m 1
 1313 40 l 1
 1313 240 l 1
 923 240 l 1
 923 339 l 1
 1302 899 l 1
 1422 899 l 1
 1422 358 l 1
 1516 358 l 1
 1526 240 l 1
 1420 240 l 1
 1420 40 l 1
1165 1547 m 1
 1300 1547 l 1
 379 0 l 1
 245 0 l 1
 1165 1547 l 1
1066 358 m 1
 1312 358 l 1
 1312 358 1312 688 1313 716 c 1
 1066 358 l 1
EndSplineSet
EndChar

StartChar: ordfeminine
Encoding: 105 170 331
Width: 807
GlyphClass: 2
Flags: MW
HStem: 635 106<134 679 134 679> 826 111<333 394> 1195 94<543 543> 1473 117<376.5 462>
VStem: 128 119<1008 1117.5 1008 1146> 543 115<926 982>
LayerCount: 2
Fore
SplineSet
134 741 m 1
 679 741 l 1
 679 635 l 1
 134 635 l 1
 134 741 l 1
369 937 m 0
 488 937 538 1047 543 1168 c 1
 543 1195 l 1
 419 1182 247 1187 247 1048 c 0
 247 968 297 937 369 937 c 0
350 826 m 0
 223 826 128 913 128 1050 c 0
 128 1242 306 1274 543 1289 c 1
 543 1307 l 1
 540 1424 511 1473 413 1473 c 0
 340 1473 270 1467 198 1385 c 1
 137 1463 l 1
 212 1561 308 1590 419 1590 c 0
 549 1590 660 1517 660 1330 c 1
 658 982 l 2
 658 969 659 938 664 847 c 1
 546 847 l 1
 543 926 l 1
 503 866 438 826 350 826 c 0
EndSplineSet
EndChar

StartChar: ordmasculine
Encoding: 120 186 332
Width: 899
GlyphClass: 2
Flags: MW
HStem: 826 115<387.5 515.5 387.5 554> 1473 117<387.5 512.5>
VStem: 131 125<1132.5 1279 1132.5 1316> 645 124<1132.5 1277>
LayerCount: 2
Fore
SplineSet
256 1207 m 0
 256 1058 322 941 453 941 c 0
 578 941 645 1062 645 1203 c 0
 645 1351 576 1473 449 1473 c 0
 326 1473 256 1351 256 1207 c 0
451 1590 m 0
 655 1590 769 1419 769 1205 c 0
 769 994 655 826 453 826 c 0
 241 826 131 994 131 1210 c 0
 131 1422 248 1590 451 1590 c 0
EndSplineSet
EndChar

StartChar: partialdiff
Encoding: 398 8706 333
Width: 1208
GlyphClass: 2
Flags: MW
HStem: -28 147<434.5 619.5 434.5 707.5> 935 142<527 674.5 461.5 703> 1507 145<547.5 693.5>
VStem: 113 148<350 580.5 350 629> 918 151<966 1142.5>
LayerCount: 2
Fore
SplineSet
301 1405 m 1
 288 1553 l 1
 372 1610 486 1652 609 1652 c 0
 907 1652 1069 1421 1069 917 c 0
 1069 453 905 -28 510 -28 c 0
 234 -28 113 182 113 452 c 0
 113 806 317 1077 606 1077 c 0
 743 1077 849 1014 917 901 c 1
 917 920 918 952 918 980 c 0
 918 1305 802 1507 585 1507 c 0
 483 1507 381 1461 301 1405 c 1
511 119 m 0
 728 119 872 383 904 705 c 1
 869 826 775 935 631 935 c 0
 423 935 261 711 261 450 c 0
 261 250 358 119 511 119 c 0
EndSplineSet
EndChar

StartChar: perthousand
Encoding: 65544 8240 334
Width: 2303
GlyphClass: 2
Flags: MW
HStem: -30 123<1040.5 1173.5 1040.5 1214.5 1812.5 1947.5> 610 125<1038.5 1173.5 1811 1945> 796 123<350 463.5 350 498.5> 1438 121<347.5 461.5>
VStem: 108 129<1106.5 1249.5 1106.5 1289.5> 574 128<1108.5 1251.5> 777 131<280.5 423.5 280.5 463> 1305 129<285.5 427> 1550 127<280.5 423.5 280.5 463> 2081 126<284 425.5>
LayerCount: 2
Fore
SplineSet
395 -22 m 1
 259 -22 l 1
 1115 1547 l 1
 1272 1547 l 1
 395 -22 l 1
404 1438 m 0
 291 1438 237 1319 237 1180 c 0
 237 1033 292 919 408 919 c 0
 519 919 574 1039 574 1178 c 0
 574 1325 519 1438 404 1438 c 0
1105 610 m 0
 972 610 908 493 908 354 c 0
 908 207 974 93 1107 93 c 0
 1240 93 1305 217 1305 354 c 0
 1305 500 1242 610 1105 610 c 0
1104 -30 m 0
 884 -30 777 124 777 354 c 0
 777 572 883 735 1107 735 c 0
 1331 735 1434 584 1434 352 c 0
 1434 136 1325 -30 1104 -30 c 0
404 796 m 0
 214 796 108 950 108 1180 c 0
 108 1399 214 1559 406 1559 c 0
 600 1559 702 1410 702 1176 c 0
 702 960 593 796 404 796 c 0
1876 -30 m 0
 1658 -30 1550 124 1550 354 c 0
 1550 572 1658 735 1881 735 c 0
 2101 735 2207 588 2207 352 c 0
 2207 136 2097 -30 1876 -30 c 0
1879 610 m 0
 1743 610 1677 493 1677 354 c 0
 1677 207 1744 93 1881 93 c 0
 2014 93 2081 214 2081 354 c 0
 2081 497 2011 610 1879 610 c 0
EndSplineSet
EndChar

StartChar: pi
Encoding: 358 960 335
Width: 1456
GlyphClass: 2
Flags: MW
HStem: -8 166<1159 1177.5> 976 144<570 976 570 570 1114 1296 1114 1114>
VStem: 420 150<976 976> 976 138<301 312 312 976>
LayerCount: 2
Fore
SplineSet
1296 1120 m 1
 1296 976 l 1
 1114 976 l 1
 1114 312 l 2
 1114 248 1116 158 1202 158 c 0
 1221 158 1249 164 1278 172 c 1
 1278 6 l 1
 1233 -2 1195 -8 1160 -8 c 0
 1020 -8 976 79 976 301 c 2
 976 976 l 1
 570 976 l 1
 554 566 522 144 446 0 c 1
 298 0 l 1
 386 189 412 663 420 976 c 1
 313 973 241 954 176 911 c 1
 160 1053 l 1
 219 1109 313 1120 470 1120 c 2
 1296 1120 l 1
EndSplineSet
EndChar

StartChar: plusminus
Encoding: 112 177 336
Width: 1202
GlyphClass: 2
Flags: MW
HStem: 0 143<118 1088 118 1088> 647 143<118 532 118 533 118 532 670 1086 670 670>
VStem: 532 136<790 1206>
LayerCount: 2
Fore
SplineSet
118 0 m 1
 118 143 l 1
 1088 143 l 1
 1088 0 l 1
 118 0 l 1
668 790 m 1
 1086 790 l 1
 1086 647 l 1
 670 647 l 1
 670 233 l 1
 533 233 l 1
 533 647 l 1
 118 647 l 1
 118 790 l 1
 532 790 l 1
 532 1206 l 1
 668 1206 l 1
 668 790 l 1
EndSplineSet
EndChar

StartChar: product
Encoding: 400 8719 337
Width: 1463
GlyphClass: 2
Flags: MW
HStem: 0 21G<147 324 147 147 1139 1139 1139 1316> 1342 154<324 1139 324 324>
VStem: 147 177<0 1342 0 1496 0 1496> 1139 177<0 1342 1342 1342>
LayerCount: 2
Fore
SplineSet
1139 1342 m 1
 324 1342 l 1
 324 0 l 1
 147 0 l 1
 147 1496 l 1
 1316 1496 l 1
 1316 0 l 1
 1139 0 l 1
 1139 1342 l 1
EndSplineSet
EndChar

StartChar: quotedblbase
Encoding: 388 8222 339
Width: 819
GlyphClass: 2
Flags: MW
HStem: -256 472<126 377 216 244 532 559 216 441>
VStem: 126 568<-256 216>
LayerCount: 2
Fore
SplineSet
126 -256 m 1
 216 216 l 1
 377 216 l 1
 244 -256 l 1
 126 -256 l 1
441 -256 m 1
 532 216 l 1
 694 216 l 1
 559 -256 l 1
 441 -256 l 1
EndSplineSet
EndChar

StartChar: quotedblleft
Encoding: 386 8220 340
Width: 818
GlyphClass: 2
Flags: MW
HStem: 1102 472<129 383 263 289 263 438 573 600>
VStem: 129 561<1102 1574>
LayerCount: 2
Fore
SplineSet
438 1102 m 1
 573 1574 l 1
 690 1574 l 1
 600 1102 l 1
 438 1102 l 1
129 1102 m 1
 263 1574 l 1
 383 1574 l 1
 289 1102 l 1
 129 1102 l 1
EndSplineSet
EndChar

StartChar: quotedblright
Encoding: 387 8221 341
Width: 795
GlyphClass: 2
Flags: MW
HStem: 1102 472<133 385 226 250 511 537 226 420>
VStem: 133 541<1102 1574>
LayerCount: 2
Fore
SplineSet
133 1102 m 1
 226 1574 l 1
 385 1574 l 1
 250 1102 l 1
 133 1102 l 1
420 1102 m 1
 511 1574 l 1
 674 1574 l 1
 537 1102 l 1
 420 1102 l 1
EndSplineSet
EndChar

StartChar: quoteleft
Encoding: 383 8216 342
Width: 510
GlyphClass: 2
Flags: MW
HStem: 1102 472<129 382 265 291>
VStem: 129 253
LayerCount: 2
Fore
SplineSet
129 1102 m 1
 265 1574 l 1
 382 1574 l 1
 291 1102 l 1
 129 1102 l 1
EndSplineSet
EndChar

StartChar: quoteright
Encoding: 384 8217 343
Width: 504
GlyphClass: 2
Flags: MW
HStem: 1102 472<226 249 133 383>
VStem: 133 250
LayerCount: 2
Fore
SplineSet
249 1102 m 1
 133 1102 l 1
 226 1574 l 1
 383 1574 l 1
 249 1102 l 1
EndSplineSet
EndChar

StartChar: quotesinglbase
Encoding: 385 8218 344
Width: 504
GlyphClass: 2
Flags: MW
HStem: -256 472<126 379 218 245>
VStem: 126 253
LayerCount: 2
Fore
SplineSet
126 -256 m 1
 218 216 l 1
 379 216 l 1
 245 -256 l 1
 126 -256 l 1
EndSplineSet
EndChar

StartChar: radical
Encoding: 402 8730 346
Width: 1216
GlyphClass: 2
Flags: W
LayerCount: 2
Fore
SplineSet
1035 1718 m 1
 1148 1718 l 1
 708 -166 l 1
 569 -166 l 1
 236 743 l 1
 84 712 l 1
 68 833 l 1
 328 889 l 1
 569 230 l 1
 628 44 l 1
 763 602 899 1160 1035 1718 c 1
EndSplineSet
EndChar

StartChar: summation
Encoding: 401 8721 355
Width: 1286
GlyphClass: 2
Flags: MW
HStem: -356 161<292 1203 292 1203> 1379 153<317 1163 317 317>
LayerCount: 2
Fore
SplineSet
1203 -195 m 1
 1203 -356 l 1
 82 -356 l 1
 82 -257 l 1
 702 596 l 1
 104 1430 l 1
 104 1532 l 1
 1163 1532 l 1
 1163 1379 l 1
 317 1379 l 1
 913 604 l 1
 292 -195 l 1
 1203 -195 l 1
EndSplineSet
EndChar

StartChar: thorn
Encoding: 188 254 358
Width: 1205
GlyphClass: 2
Flags: MW
HStem: -25 138<567 741 504.5 797> 986 138<568.5 643 568.5 745.5>
VStem: 124 168<-459 162 933 1213 1213 1510> 926 173<455.5 647>
LayerCount: 2
Fore
SplineSet
292 162 m 1
 292 -459 l 1
 124 -459 l 1
 124 1213 l 1
 124 1510 l 1
 292 1510 l 1
 292 933 l 1
 378 1060 494 1124 643 1124 c 1
 919 1122 1099 879 1099 560 c 0
 1099 268 951 -25 643 -25 c 0
 491 -25 367 34 292 162 c 1
624 113 m 0
 858 113 926 360 926 551 c 0
 926 743 860 986 631 986 c 0
 405 986 290 781 290 551 c 0
 290 320 385 113 624 113 c 0
EndSplineSet
EndChar

StartChar: threequarters
Encoding: 124 190 359
Width: 1630
GlyphClass: 2
Flags: MW
HStem: 0 21G<331 331 331 465> 245 116<1085 1331 1085 1334 1085 1441 1442 1538> 631 122<300 370 300 405.5> 1046 128<244 288 288 293 244 288> 1424 129<305 373.5>
VStem: 462 138<1263 1345> 484 136<857 951 816 956> 1334 107<44 245 44 245>
LayerCount: 2
Fore
SplineSet
1085 361 m 1xf9
 1331 361 l 1
 1331 608 1331 664 1334 721 c 1
 1085 361 l 1xf9
331 0 m 1
 1249 1547 l 1
 1393 1547 l 1
 465 0 l 1
 331 0 l 1
1334 44 m 1
 1334 245 l 1
 942 245 l 1
 942 343 l 1
 1321 903 l 1
 1442 903 l 1
 1442 361 l 1
 1538 361 l 1
 1546 245 l 1
 1441 245 l 1
 1441 44 l 1
 1334 44 l 1
333 631 m 0
 249 631 173 667 116 735 c 1
 168 838 l 1
 219 782 272 753 328 753 c 0
 412 753 484 811 484 903 c 0xfb
 484 1009 410 1046 293 1046 c 2
 244 1046 l 1
 244 1174 l 1
 288 1174 l 2
 389 1174 462 1206 462 1303 c 0
 462 1387 410 1424 337 1424 c 0
 273 1424 217 1390 166 1339 c 1
 116 1442 l 1
 170 1506 253 1553 338 1553 c 0
 462 1553 600 1461 600 1305 c 0xfd
 600 1221 559 1152 487 1112 c 1
 571 1072 620 1003 620 899 c 0xfb
 620 733 478 631 333 631 c 0
EndSplineSet
EndChar

StartChar: trademark
Encoding: 397 8482 361
Width: 1812
GlyphClass: 2
Flags: MW
HStem: 1394 102<90 349 90 727 463 727 463 463>
VStem: 349 114<609 1394 609 1394> 849 111<609 1349 609 1496> 1590 114<609 1349 1349 1349>
LayerCount: 2
Fore
SplineSet
849 1496 m 1
 1006 1496 l 1
 1274 824 l 1
 1555 1496 l 1
 1704 1496 l 1
 1704 609 l 1
 1590 609 l 1
 1590 1349 l 1
 1310 680 l 1
 1224 680 l 1
 960 1349 l 1
 960 609 l 1
 849 609 l 1
 849 1496 l 1
90 1496 m 1
 727 1496 l 1
 727 1394 l 1
 463 1394 l 1
 463 609 l 1
 349 609 l 1
 349 1394 l 1
 90 1394 l 1
 90 1496 l 1
EndSplineSet
EndChar

StartChar: uni00B2
Encoding: 113 178 365
Width: 763
GlyphClass: 2
Flags: MW
HStem: 650 128<297 615 297 615> 1424 127<342 419.5>
VStem: 504 113<1243 1339.5>
LayerCount: 2
Fore
SplineSet
615 650 m 1
 134 650 l 1
 134 769 l 1
 348 1010 504 1183 504 1303 c 0
 504 1376 459 1424 380 1424 c 0
 304 1424 252 1371 217 1282 c 1
 143 1367 l 1
 183 1484 275 1551 387 1551 c 0
 518 1551 617 1454 617 1305 c 0
 617 1122 476 965 297 778 c 1
 615 778 l 1
 615 650 l 1
EndSplineSet
EndChar

StartChar: uni00B3
Encoding: 114 179 366
Width: 756
GlyphClass: 2
Flags: MW
HStem: 631 122<318 388 318 421.5> 1046 128<260 304 304 308 260 304> 1424 129<320 388.5>
VStem: 478 115<1263 1345> 498 115<857 951 816 956>
LayerCount: 2
Fore
SplineSet
352 1424 m 0xf0
 288 1424 236 1390 185 1339 c 1
 132 1442 l 1
 186 1506 269 1553 354 1553 c 0
 477 1553 593 1461 593 1305 c 0xf0
 593 1221 559 1152 498 1112 c 1
 570 1072 613 1003 613 899 c 0
 613 733 493 631 350 631 c 0
 266 631 189 667 132 735 c 1
 187 838 l 1
 238 782 290 753 346 753 c 0
 430 753 498 811 498 903 c 0xe8
 498 1009 426 1046 308 1046 c 2
 260 1046 l 1
 260 1174 l 1
 304 1174 l 2
 405 1174 478 1206 478 1303 c 0
 478 1387 425 1424 352 1424 c 0xf0
EndSplineSet
EndChar

StartChar: uni00B9
Encoding: 119 185 367
Width: 601
GlyphClass: 2
Flags: MW
HStem: 650 96<135 253 368 492 135 253> 1519 20G<271 271>
VStem: 253 115<746 1409 1409 1409>
LayerCount: 2
Fore
SplineSet
122 1334 m 1
 122 1436 l 1
 183 1467 231 1499 271 1539 c 1
 368 1538 l 1
 368 746 l 1
 492 746 l 1
 492 650 l 1
 135 650 l 1
 135 746 l 1
 253 746 l 1
 253 1409 l 1
 215 1384 166 1357 122 1334 c 1
EndSplineSet
EndChar

StartChar: uni01C4
Encoding: 303 452 368
Width: 2686
GlyphClass: 2
Flags: MW
HStem: 0 151<347 608 608 613> 0 154<1804 2614> 1325 154<1617 2392> 1328 151<347 579 347 347> 1647 388<1832 2232 1832 2019>
VStem: 174 173<151 1328 151 1479 151 1479> 1205 185<541.5 949> 1832 587<2035 2035>
LayerCount: 2
Fore
SplineSet
1588 0 m 1x69
 1588 136 l 1
 2392 1325 l 1
 1617 1325 l 1
 1617 1479 l 1
 2613 1479 l 1
 2613 1350 l 1
 1804 154 l 1
 2620 154 l 1
 2614 0 l 1
 1588 0 l 1x69
1832 2035 m 1
 1963 2035 l 1
 2124 1723 l 1
 2285 2035 l 1
 2419 2035 l 1
 2232 1647 l 1
 2019 1647 l 1
 1832 2035 l 1
1205 736 m 0x96
 1205 1162 972 1328 579 1328 c 2
 347 1328 l 1
 347 151 l 1
 608 151 l 2
 994 151 1205 347 1205 736 c 0x96
1390 741 m 0
 1390 252 1095 0 613 0 c 2
 174 0 l 1
 174 1479 l 1
 584 1479 l 2
 1069 1479 1390 1255 1390 741 c 0
EndSplineSet
EndChar

StartChar: uni01C5
Encoding: 304 453 369
Width: 2414
GlyphClass: 2
Flags: MW
HStem: 0 132<1773 2351 1773 2351> 0 151<347 608 608 613> 965 132<1600 2146 1600 2333 1600 2333> 1246 388<1658 2058 1658 1845> 1328 151<347 579 347 347>
VStem: 174 173<151 1328 151 1479 151 1479> 1205 185<541.5 949> 1658 587<1634 1634>
LayerCount: 2
Fore
SplineSet
2351 0 m 1xb1
 1585 0 l 1
 1585 126 l 1
 2146 965 l 1
 1600 965 l 1
 1600 1097 l 1
 2333 1097 l 1
 2333 965 l 1
 1773 132 l 1
 2351 132 l 1
 2351 0 l 1xb1
1658 1634 m 1
 1789 1634 l 1
 1950 1322 l 1
 2111 1634 l 1
 2245 1634 l 1
 2058 1246 l 1
 1845 1246 l 1
 1658 1634 l 1
1205 736 m 0x4e
 1205 1162 972 1328 579 1328 c 2
 347 1328 l 1
 347 151 l 1
 608 151 l 2
 994 151 1205 347 1205 736 c 0x4e
1390 741 m 0
 1390 252 1095 0 613 0 c 2
 174 0 l 1
 174 1479 l 1
 584 1479 l 2
 1069 1479 1390 1255 1390 741 c 0
EndSplineSet
EndChar

StartChar: uni01C6
Encoding: 305 454 370
Width: 2123
GlyphClass: 2
Flags: MW
HStem: -22 143<464.5 630.5> 0 21<922 1064 922 922 1294 2060 1294 1294> 0 132<1482 2060 1482 2060> 965 132<1309 1855 1309 2042 1309 2042> 977 143<464 623.5 411 687.5> 1246 388<1367 1767 1367 1554> 1513 20<1064 1064>
VStem: 92 173<424.5 668 424.5 720.5> 899 165<1040 1523 1523 1523> 922 142<0 1533> 1367 587<1634 1634>
LayerCount: 2
Fore
SplineSet
2060 0 m 1x3420
 1294 0 l 1
 1294 126 l 1
 1855 965 l 1
 1309 965 l 1
 1309 1097 l 1
 2042 1097 l 1
 2042 965 l 1
 1482 132 l 1
 2060 132 l 1
 2060 0 l 1x3420
1367 1634 m 1
 1498 1634 l 1
 1659 1322 l 1
 1820 1634 l 1
 1954 1634 l 1
 1767 1246 l 1
 1554 1246 l 1
 1367 1634 l 1
571 121 m 0x8b
 797 121 897 275 897 530 c 0
 897 817 806 977 569 977 c 0
 359 977 265 787 265 549 c 0
 265 300 358 121 571 121 c 0x8b
900 159 m 1
 830 51 706 -22 555 -22 c 0
 264 -22 92 200 92 553 c 0
 92 888 270 1120 552 1120 c 0
 695 1120 837 1053 902 945 c 1
 899 1040 l 1
 899 1523 l 1x8b80
 1064 1533 l 1
 1064 0 l 1
 922 0 l 1x4b40
 900 159 l 1
EndSplineSet
EndChar

StartChar: uni01C7
Encoding: 306 455 371
Width: 1571
GlyphClass: 2
Flags: MW
HStem: -214 142<1002 1037 1002 1002> 0 154<348 993> 1459 20<174 348 348 348> 1476 20<1247 1424 1424 1424>
VStem: 174 174<154 1479 154 1479 154 1479> 1247 177<181 241 241 1496>
LayerCount: 2
Fore
SplineSet
1247 181 m 2x94
 1247 1496 l 1
 1424 1496 l 1
 1424 241 l 2
 1424 -67 1389 -214 1037 -214 c 2
 1002 -214 l 1
 981 -72 l 1
 1055 -72 l 2
 1237 -72 1247 33 1247 181 c 2x94
174 0 m 1x68
 174 1479 l 1
 348 1479 l 1
 348 154 l 1
 999 154 l 1
 993 0 l 1
 174 0 l 1x68
EndSplineSet
EndChar

StartChar: uni01C8
Encoding: 307 456 372
Width: 1466
GlyphClass: 2
Flags: MW
HStem: -502 151<966 996 996 1018 966 966> 0 154<348 993> 1077 20<1183 1351 1351 1351> 1298 198<1183 1351 1183 1351> 1459 20<174 348 348 348>
VStem: 174 174<154 1479 154 1479 154 1479> 1183 168<-121 1097 1298 1496>
LayerCount: 2
Fore
SplineSet
1351 1097 m 1xb2
 1351 -139 l 2
 1351 -407 1291 -502 1018 -502 c 2
 966 -502 l 1
 944 -351 l 1
 996 -351 l 2
 1178 -351 1183 -286 1183 -121 c 2
 1183 1097 l 1
 1351 1097 l 1xb2
1351 1496 m 1
 1351 1298 l 1
 1183 1298 l 1
 1183 1496 l 1
 1351 1496 l 1
174 0 m 1x4c
 174 1479 l 1
 348 1479 l 1
 348 154 l 1
 999 154 l 1
 993 0 l 1
 174 0 l 1x4c
EndSplineSet
EndChar

StartChar: uni01C9
Encoding: 308 457 373
Width: 1014
GlyphClass: 2
Flags: MW
HStem: -502 151<514 544 544 566 514 514> -20 138<399.5 452> 1077 20<731 899 899 899> 1298 198<731 899 731 899> 1513 20<311 311>
VStem: 145 166<365 431 431 1523 1523 1523> 731 168<-121 1097 1298 1496>
LayerCount: 2
Fore
SplineSet
899 1097 m 1
 899 -139 l 2
 899 -407 839 -502 566 -502 c 2
 514 -502 l 1
 492 -351 l 1
 544 -351 l 2
 726 -351 731 -286 731 -121 c 2
 731 1097 l 1
 899 1097 l 1
899 1496 m 1
 899 1298 l 1
 731 1298 l 1
 731 1496 l 1
 899 1496 l 1
438 -20 m 0
 226 -20 145 79 145 365 c 2
 145 1523 l 1
 311 1533 l 1
 311 431 l 2
 311 186 323 118 476 118 c 0
 525 118 555 124 602 130 c 1
 611 -3 l 1
 538 -15 466 -20 438 -20 c 0
EndSplineSet
EndChar

StartChar: uni01CA
Encoding: 309 458 374
Width: 2066
GlyphClass: 2
Flags: MW
HStem: -214 142<1497 1532 1497 1497> 0 21<174 336 174 174 1146 1342 1146 1146> 1459 20<174 367 367 367 1181 1342 1342 1342> 1476 20<1742 1919 1919 1919>
VStem: 174 162<0 858 0 1479> 1181 161<615 1479> 1742 177<181 241 241 1496>
LayerCount: 2
Fore
SplineSet
1742 181 m 2x92
 1742 1496 l 1
 1919 1496 l 1
 1919 241 l 2
 1919 -67 1884 -214 1532 -214 c 2
 1497 -214 l 1
 1476 -72 l 1
 1550 -72 l 2
 1732 -72 1742 33 1742 181 c 2x92
1342 0 m 1x6c
 1146 0 l 1
 378 1164 l 1
 328 1233 l 1
 333 1102 336 977 336 858 c 2
 336 0 l 1
 174 0 l 1
 174 1479 l 1
 367 1479 l 1
 1137 315 l 1
 1188 246 l 1
 1188 246 1181 565 1181 615 c 2
 1181 1479 l 1
 1342 1479 l 1
 1342 0 l 1x6c
EndSplineSet
EndChar

StartChar: uni01CB
Encoding: 310 459 375
Width: 1961
GlyphClass: 2
Flags: MW
HStem: -502 151<1461 1491 1491 1513 1461 1461> 0 21<174 336 174 174 1146 1342 1146 1146> 1077 20<1678 1846 1846 1846> 1298 198<1678 1846 1678 1846> 1459 20<174 367 367 367 1181 1342 1342 1342>
VStem: 174 162<0 858 0 1479> 1181 161<615 1479> 1678 168<-121 1097 1298 1496>
LayerCount: 2
Fore
SplineSet
1846 1097 m 1xb1
 1846 -139 l 2
 1846 -407 1786 -502 1513 -502 c 2
 1461 -502 l 1
 1439 -351 l 1
 1491 -351 l 2
 1673 -351 1678 -286 1678 -121 c 2
 1678 1097 l 1
 1846 1097 l 1xb1
1846 1496 m 1
 1846 1298 l 1
 1678 1298 l 1
 1678 1496 l 1
 1846 1496 l 1
1342 0 m 1x4e
 1146 0 l 1
 378 1164 l 1
 328 1233 l 1
 333 1102 336 977 336 858 c 2
 336 0 l 1
 174 0 l 1
 174 1479 l 1
 367 1479 l 1
 1137 315 l 1
 1188 246 l 1
 1188 246 1181 565 1181 615 c 2
 1181 1479 l 1
 1342 1479 l 1
 1342 0 l 1x4e
EndSplineSet
EndChar

StartChar: uni01CC
Encoding: 311 460 376
Width: 1629
GlyphClass: 2
Flags: MW
HStem: -502 151<1129 1159 1159 1181 1129 1129> 0 21<143 143 143 312 882 882 882 1049> 977 143<598.5 733> 1077 20<143 283 283 283 1346 1514 1514 1514> 1298 198<1346 1514 1346 1514>
VStem: 143 140<0 1097 1097 1097> 143 169<0 600 0 1097> 882 167<0 686> 1346 168<-121 1097 1298 1496>
LayerCount: 2
Fore
SplineSet
1514 1097 m 1x9880
 1514 -139 l 2
 1514 -407 1454 -502 1181 -502 c 2
 1129 -502 l 1
 1107 -351 l 1
 1159 -351 l 2
 1341 -351 1346 -286 1346 -121 c 2
 1346 1097 l 1
 1514 1097 l 1x9880
1514 1496 m 1
 1514 1298 l 1
 1346 1298 l 1
 1346 1496 l 1
 1514 1496 l 1
143 0 m 1x63
 143 1097 l 1
 283 1097 l 1x55
 304 940 l 1
 386 1043 520 1120 677 1120 c 0
 930 1120 1049 980 1049 686 c 2
 1049 0 l 1
 882 0 l 1
 882 0 882 660 881 707 c 0
 876 888 817 977 649 977 c 0
 471 977 355 880 322 754 c 1
 315 707 312 656 312 600 c 2
 312 0 l 1
 143 0 l 1x63
EndSplineSet
EndChar

StartChar: uni01F1
Encoding: 312 497 377
Width: 2686
GlyphClass: 2
Flags: MW
HStem: 0 151<347 608 608 613> 0 154<1804 2614> 1325 154<1617 2392> 1328 151<347 579 347 347>
VStem: 174 173<151 1328 151 1479 151 1479> 1205 185<541.5 949>
LayerCount: 2
Fore
SplineSet
1588 0 m 1x60
 1588 136 l 1
 2392 1325 l 1
 1617 1325 l 1
 1617 1479 l 1
 2613 1479 l 1
 2613 1350 l 1
 1804 154 l 1
 2620 154 l 1
 2614 0 l 1
 1588 0 l 1x60
1205 736 m 0x9c
 1205 1162 972 1328 579 1328 c 2
 347 1328 l 1
 347 151 l 1
 608 151 l 2
 994 151 1205 347 1205 736 c 0x9c
1390 741 m 0
 1390 252 1095 0 613 0 c 2
 174 0 l 1
 174 1479 l 1
 584 1479 l 2
 1069 1479 1390 1255 1390 741 c 0
EndSplineSet
EndChar

StartChar: uni01F2
Encoding: 313 498 378
Width: 2414
GlyphClass: 2
Flags: MW
HStem: 0 132<1773 2351 1773 2351> 0 151<347 608 608 613> 965 132<1600 2146 1600 2333 1600 2333> 1328 151<347 579 347 347>
VStem: 174 173<151 1328 151 1479 151 1479> 1205 185<541.5 949>
LayerCount: 2
Fore
SplineSet
2351 0 m 1xa0
 1585 0 l 1
 1585 126 l 1
 2146 965 l 1
 1600 965 l 1
 1600 1097 l 1
 2333 1097 l 1
 2333 965 l 1
 1773 132 l 1
 2351 132 l 1
 2351 0 l 1xa0
1205 736 m 0x5c
 1205 1162 972 1328 579 1328 c 2
 347 1328 l 1
 347 151 l 1
 608 151 l 2
 994 151 1205 347 1205 736 c 0x5c
1390 741 m 0
 1390 252 1095 0 613 0 c 2
 174 0 l 1
 174 1479 l 1
 584 1479 l 2
 1069 1479 1390 1255 1390 741 c 0
EndSplineSet
EndChar

StartChar: uni01F3
Encoding: 314 499 379
Width: 2123
GlyphClass: 2
Flags: MW
HStem: -22 143<464.5 630.5> 0 21<922 1064 922 922 1294 2060 1294 1294> 0 132<1482 2060 1482 2060> 965 132<1309 1855 1309 2042 1309 2042> 977 143<464 623.5 411 687.5> 1513 20<1064 1064>
VStem: 92 173<424.5 668 424.5 720.5> 899 165<1040 1523 1523 1523> 922 142<0 1533>
LayerCount: 2
Fore
SplineSet
2060 0 m 1x30
 1294 0 l 1
 1294 126 l 1
 1855 965 l 1
 1309 965 l 1
 1309 1097 l 1
 2042 1097 l 1
 2042 965 l 1
 1482 132 l 1
 2060 132 l 1
 2060 0 l 1x30
571 121 m 0x8e
 797 121 897 275 897 530 c 0
 897 817 806 977 569 977 c 0
 359 977 265 787 265 549 c 0
 265 300 358 121 571 121 c 0x8e
900 159 m 1
 830 51 706 -22 555 -22 c 0
 264 -22 92 200 92 553 c 0
 92 888 270 1120 552 1120 c 0
 695 1120 837 1053 902 945 c 1
 899 1040 l 1
 899 1523 l 1x8f
 1064 1533 l 1
 1064 0 l 1
 922 0 l 1x4e80
 900 159 l 1
EndSplineSet
EndChar

StartChar: uni0237
Encoding: 345 567 406
Width: 444
GlyphClass: 2
Flags: MW
HStem: -502 151<-55 -25 -25 -3 -55 -55> 1078 20G<162 330 330 330>
VStem: 162 168<-121 1098>
LayerCount: 2
Fore
SplineSet
330 1098 m 1
 330 -139 l 2
 330 -407 270 -502 -3 -502 c 2
 -55 -502 l 1
 -77 -351 l 1
 -25 -351 l 2
 157 -351 162 -286 162 -121 c 2
 162 1098 l 1
 330 1098 l 1
EndSplineSet
EndChar

StartChar: uni0307
Encoding: 354 775 407
Width: 411
GlyphClass: 2
Flags: MW
HStem: 1298 198<122 290 122 290>
VStem: 122 168<1298 1496 1298 1496>
LayerCount: 2
Fore
SplineSet
290 1496 m 1
 290 1298 l 1
 122 1298 l 1
 122 1496 l 1
 290 1496 l 1
EndSplineSet
EndChar

StartChar: uni030F
Encoding: 355 783 408
Width: 855
GlyphClass: 2
Flags: MW
HStem: 1259 335<109 359 380 461>
VStem: 109 620<1259 1594>
LayerCount: 2
Fore
SplineSet
359 1259 m 1
 109 1594 l 1
 259 1594 l 1
 461 1259 l 1
 359 1259 l 1
627 1259 m 1
 380 1594 l 1
 531 1594 l 1
 729 1259 l 1
 627 1259 l 1
EndSplineSet
EndChar

StartChar: uni0311
Encoding: 356 785 409
Width: 767
GlyphClass: 2
Flags: MW
HStem: 1440 117<346.5 419.5>
VStem: 134 116<1299 1347 1299 1385> 519 117<1299 1347>
LayerCount: 2
Fore
SplineSet
383 1557 m 0
 507 1557 636 1471 636 1299 c 1
 519 1299 l 1
 519 1395 456 1440 383 1440 c 0
 310 1440 250 1395 250 1299 c 1
 134 1299 l 1
 134 1471 260 1557 383 1557 c 0
EndSplineSet
EndChar

StartChar: uni2074
Encoding: 395 8308 410
Width: 756
GlyphClass: 2
Flags: MW
HStem: 865 113<213 422 213 423 213 530 532 626>
VStem: 423 107<661 865>
LayerCount: 2
Fore
SplineSet
213 978 m 1
 422 978 l 1
 422 978 422 1311 423 1339 c 1
 213 978 l 1
530 661 m 1
 423 661 l 1
 423 865 l 1
 92 865 l 1
 92 964 l 1
 413 1519 l 1
 532 1519 l 1
 532 978 l 1
 626 978 l 1
 636 865 l 1
 530 865 l 1
 530 661 l 1
EndSplineSet
EndChar

StartChar: uni2206
Encoding: 399 8710 411
Width: 1339
GlyphClass: 2
Flags: MW
HStem: 0 174<284 1062 284 1263> 1521 20G<578 768 768 768>
LayerCount: 2
Fore
SplineSet
284 174 m 1
 1062 174 l 1
 704 1195 l 1
 668 1312 l 1
 636 1195 l 1
 284 174 l 1
1263 86 m 1
 1263 0 l 1
 83 0 l 1
 83 86 l 1
 578 1541 l 1
 768 1541 l 1
 1263 86 l 1
EndSplineSet
EndChar

StartChar: uniFB01
Encoding: 410 64257 412
Width: 1088
GlyphClass: 3
Flags: MW
HStem: 0 21G<181 181 181 349 788 788 788 956> 980 118<20 181 20 181 349 788> 1298 198<788 956 788 956> 1408 128<451.5 612 539 612 539 632>
VStem: 181 168<0 980 0 980 1098 1136 0 1138 0 1138> 788 168<0 980 980 980 1298 1496>
LayerCount: 2
Fore
SplineSet
181 0 m 1xdc
 181 980 l 1
 20 980 l 1
 20 1098 l 1
 181 1098 l 1
 181 1138 l 1
 188 1456 277 1536 539 1536 c 2
 612 1536 l 1
 632 1408 l 1
 538 1408 l 2
 365 1408 350 1340 349 1136 c 1
 349 1098 l 1
 956 1098 l 1
 956 0 l 1
 788 0 l 1
 788 980 l 1
 349 980 l 1
 349 0 l 1
 181 0 l 1xdc
788 1496 m 1xec
 956 1496 l 1
 956 1298 l 1
 788 1298 l 1
 788 1496 l 1xec
EndSplineSet
Ligature2: "'liga' Standard Ligatures lookup 0 subtable" f i
EndChar

StartChar: uniFB02
Encoding: 411 64258 413
Width: 1237
GlyphClass: 3
Flags: MW
HStem: -12 140<1055.5 1102.5> 980 118<20 181 20 181 349 598> 1383 129<482.5 560 436 562>
VStem: 181 168<0 980 0 980 1098 1104.5 0 1128 0 1128> 808 168<487 1376 1376 1376>
LayerCount: 2
Fore
SplineSet
1094 -12 m 0
 822 -12 808 123 808 487 c 2
 808 1376 l 1
 596 1390 567 1383 557 1383 c 0
 408 1383 356 1322 350 1135 c 0
 350 1123 349 1111 349 1098 c 1
 598 1098 l 1
 598 980 l 1
 349 980 l 1
 349 0 l 1
 181 0 l 1
 181 980 l 1
 20 980 l 1
 20 1098 l 1
 181 1098 l 1
 181 1128 l 1
 189 1429 322 1512 550 1512 c 0
 570 1512 590 1512 976 1490 c 1
 976 450 l 2
 976 211 977 128 1134 128 c 0
 1159 128 1155 128 1207 132 c 1
 1218 1 l 1
 1121 -10 1111 -12 1094 -12 c 0
EndSplineSet
Ligature2: "'liga' Standard Ligatures lookup 0 subtable" f l
EndChar

StartChar: yen
Encoding: 100 165 417
Width: 1135
GlyphClass: 2
Flags: MW
HStem: 0 21G<487 645 487 487> 299 124<134 487 134 487 645 992> 605 124<135 439 135 487 135 439 685 991> 1459 20G<25 203 203 203 936 1108 1108 1108>
VStem: 487 158<0 299 0 299 423 605>
LayerCount: 2
Fore
SplineSet
567 805 m 1
 936 1479 l 1
 1108 1479 l 1
 685 729 l 1
 991 729 l 1
 991 605 l 1
 645 605 l 1
 645 423 l 1
 992 423 l 1
 992 299 l 1
 645 299 l 1
 645 0 l 1
 487 0 l 1
 487 299 l 1
 134 299 l 1
 134 423 l 1
 487 423 l 1
 487 605 l 1
 135 605 l 1
 135 729 l 1
 439 729 l 1
 25 1479 l 1
 203 1479 l 1
 567 805 l 1
EndSplineSet
EndChar

StartChar: uniFB00
Encoding: 412 64256 421
Width: 1321
GlyphClass: 3
Flags: MW
HStem: 0 21G<212 379 212 212 864 1031 864 864> 973 124<34 212 379 864 1031 1295> 1403 131<695 706> 1416 133<489 566.5 426.5 579.5 1141 1218.5>
VStem: 212 167<0 973 0 973 1097 1146 1146 1146> 864 167<0 973 0 973 1097 1146 1146 1146>
LayerCount: 2
Fore
SplineSet
1212 1416 m 0xdc
 1070 1416 1031 1340 1031 1148 c 2
 1031 1097 l 1
 1295 1097 l 1
 1295 973 l 1
 1031 973 l 1
 1031 0 l 1
 864 0 l 1
 864 973 l 1
 379 973 l 1
 379 0 l 1
 212 0 l 1
 212 973 l 1
 34 973 l 1
 48 1083 l 1
 212 1097 l 1
 212 1146 l 1
 214 1428 311 1549 542 1549 c 0xdc
 591 1549 648 1543 706 1534 c 1
 695 1403 l 1xec
 647 1410 599 1416 560 1416 c 0
 418 1416 379 1340 379 1148 c 2
 379 1097 l 1
 864 1097 l 1
 864 1146 l 1
 866 1428 963 1549 1194 1549 c 0xdc
 1243 1549 1300 1543 1358 1534 c 1
 1347 1403 l 1xec
 1299 1410 1251 1416 1212 1416 c 0xdc
EndSplineSet
Ligature2: "'liga' Standard Ligatures lookup 0 subtable" f f
EndChar

StartChar: fj
Encoding: 413 -1 422
Width: 1196
GlyphClass: 3
Flags: MW
HStem: -502 151<696 726 726 748 696 696> 0 21G<212 380 212 212> 973 124<34 212 380 913> 1298 198<913 1081 913 1081> 1416 134<490 567.5 427.5 580.5>
VStem: 212 168<0 973 0 973 1097 1146 1146 1146> 913 168<-121 973 973 973 1298 1496>
LayerCount: 2
Fore
SplineSet
1081 1496 m 1xf6
 1081 1298 l 1
 913 1298 l 1
 913 1496 l 1
 1081 1496 l 1xf6
1081 1097 m 1
 1081 -139 l 2
 1081 -407 1021 -502 748 -502 c 2
 696 -502 l 1
 674 -351 l 1
 726 -351 l 2
 908 -351 913 -286 913 -121 c 2
 913 973 l 1
 380 973 l 1
 380 0 l 1
 212 0 l 1
 212 973 l 1
 34 973 l 1
 48 1083 l 1
 212 1097 l 1
 212 1146 l 1
 214 1428 312 1550 543 1550 c 0
 592 1550 648 1543 706 1534 c 1
 696 1403 l 1
 648 1410 600 1416 561 1416 c 0xee
 419 1416 380 1340 380 1148 c 2
 380 1097 l 1
 1081 1097 l 1
EndSplineSet
Ligature2: "'liga' Standard Ligatures lookup 0 subtable" f j
EndChar

StartChar: Tcommaaccent
Encoding: 65545 -1 423
Width: 1099
GlyphClass: 2
Flags: MW
HStem: -411.3 426 0 21<462 636 462 462> 1326 153<7 462 7 1091 636 636 636 1091>
VStem: 378 198 462 174<0 1326>
LayerCount: 2
Fore
SplineSet
636 0 m 1x68
 462 0 l 1
 462 1326 l 1
 7 1326 l 1
 7 1479 l 1
 1091 1479 l 1
 1091 1326 l 1
 636 1326 l 1
 636 0 l 1x68
532 -411.299804688 m 1x90
 378 -411.299804688 l 1
 490 14.7001953125 l 1
 576 14.7001953125 l 1
 532 -411.299804688 l 1x90
EndSplineSet
EndChar

StartChar: commaaccentcomb
Encoding: 65546 -1 424
Width: 554
GlyphClass: 2
Flags: W
LayerCount: 2
Fore
SplineSet
144 -648 m 1
 239 -150 l 1
 404 -150 l 1
 260 -648 l 1
 144 -648 l 1
274 0 m 0
EndSplineSet
EndChar

StartChar: middot
Encoding: 65547 -1 425
Width: 468
GlyphClass: 2
Flags: W
LayerCount: 2
Fore
SplineSet
318 759 m 1
 318 561 l 1
 150 561 l 1
 150 759 l 1
 318 759 l 1
EndSplineSet
EndChar

StartChar: tcommaaccent
Encoding: 65548 -1 426
Width: 710
GlyphClass: 2
Flags: MW
HStem: -431.3 426 -20 137<464 514.5> 973 124<190 190 190 191 357 662>
VStem: 191 166<314 344 344 973> 193.5 198 247 110<1348 1348>
LayerCount: 2
Fore
SplineSet
493 -20 m 0x70
 273 -20 196 84 191 314 c 0
 190 361 191 973 191 973 c 1x70
 28 973 l 1
 35 1083 l 1
 190 1097 l 1
 247 1348 l 1
 357 1352 l 1
 357 1097 l 1x64
 662 1097 l 1
 662 973 l 1
 357 973 l 1
 357 344 l 2
 357 176 403 117 525 117 c 0
 564 117 613 125 668 133 c 1
 675 1 l 1
 596 -13 536 -20 493 -20 c 0x70
347.5 -431.299804688 m 1x88
 193.5 -431.299804688 l 1
 305.5 -5.2998046875 l 1
 391.5 -5.2998046875 l 1
 347.5 -431.299804688 l 1x88
EndSplineSet
EndChar
